<svg height="451pt" viewBox="-1 0 451 451.68" width="451pt" xmlns="http://www.w3.org/2000/svg"><path d="m230.980469 155.679688h-14.640625c-4.417969 0-8 3.582031-8 8v64h-16v-64c0-4.417969-3.582032-8-8-8h-14.640625l30.640625-35.679688zm0 0"/><path d="m94.980469 259.679688h-14.640625c-4.417969 0-8 3.582031-8 8v64h-16v-64c0-4.417969-3.582032-8-8-8h-14.640625l30.640625-35.679688zm0 0"/><path d="m144.339844 403.679688h-16v8h-16v-8h-32v8h-16v-8h-32v16h8v-8h16v8h32v-8h16v8h40zm0 0"/><path d="m112.339844 451.679688v-16h-16v8h-16v-8h-32v8h-16v-8h-32v16h8v-8h16v8h32v-8h16v8zm0 0"/><path d="m296.339844 403.679688h-16v8h-16v-8h-32v8h-16v-8h-32v16h8v-8h16v8h32v-8h16v8h40zm0 0"/><path d="m168.339844 379.679688h16v8h40v-16h-16v8h-16v-8h-32v8h-16v-8h-32v16h8v-8h16v8h32zm0 0"/><path d="m328.339844 387.679688v-8h16v8h40v-16h-16v8h-16v-8h-32v8h-16v-8h-32v16h8v-8h16v8zm0 0"/><path d="m264.339844 451.679688v-16h-16v8h-16v-8h-32v8h-16v-8h-32v16h8v-8h16v8h32v-8h16v8zm0 0"/><path d="m416.339844 451.679688v-16h-16v8h-16v-8h-32v8h-16v-8h-32v16h8v-8h16v8h32v-8h16v8zm0 0"/><path d="m328.339844 211.679688c-4.417969 0-8 3.582031-8 8 0 4.417968 3.582031 8 8 8zm0 0"/><path d="m336.339844 291.679688c30.929687 0 56-25.070313 56-56 0-30.925782-25.070313-56-56-56-30.929688 0-56 25.074218-56 56 .035156 30.914062 25.085937 55.964843 56 56zm-32-72c0-13.253907 10.746094-24 24-24v-8h16v8c13.253906 0 24 10.746093 24 24h-16c0-4.417969-3.582032-8-8-8v16c13.253906 0 24 10.746093 24 24 0 13.253906-10.746094 24-24 24v8h-16v-8c-13.253906 0-24-10.746094-24-24h16c0 4.417968 3.582031 8 8 8v-16c-13.253906 0-24-10.746094-24-24zm0 0"/><path d="m408.339844 355.679688v-16h-16v8h-16v-8h-32v8h-16v-8h-32v16h8v-8h16v8h32v-8h16v8zm0 0"/><path d="m448.339844 403.679688h-16v8h-16v-8h-32v8h-16v-8h-32v16h8v-8h16v8h32v-8h16v8h40zm0 0"/><path d="m288.339844 315.679688h16v8h32v-8h16v8h40v-16h-16v8h-16v-8h-32v8h-16v-8h-32v16h8zm0 0"/><path d="m352.339844 251.679688c0-4.417969-3.582032-8-8-8v16c4.417968 0 8-3.582032 8-8zm0 0"/><path d="m406.980469 35.679688h-14.640625c-4.417969 0-8 3.582031-8 8v64h-16v-64c0-4.417969-3.582032-8-8-8h-14.640625l30.640625-35.679688zm0 0"/></svg>