<?xml version="1.0" encoding="iso-8859-1"?>
<!-- Generator: Adobe Illustrator 19.0.0, SVG Export Plug-In . SVG Version: 6.00 Build 0)  -->
<svg version="1.1" id="Capa_1" xmlns="http://www.w3.org/2000/svg" xmlns:xlink="http://www.w3.org/1999/xlink" x="0px" y="0px"
	 viewBox="0 0 480 480" style="enable-background:new 0 0 480 480;" xml:space="preserve">
<g>
	<g>
		<rect x="188" y="424" width="16" height="16"/>
	</g>
</g>
<g>
	<g>
		<rect x="132" y="32" width="16" height="16"/>
	</g>
</g>
<g>
	<g>
		<rect x="164" y="32" width="16" height="16"/>
	</g>
</g>
<g>
	<g>
		<path d="M396,272h-16c-4.126-0.002-8.182,1.062-11.776,3.088C363.817,268.183,356.192,264.002,348,264h-16V40
			c-0.026-22.08-17.92-39.974-40-40H100C77.92,0.026,60.026,17.92,60,40v400c0.026,22.08,17.92,39.974,40,40h296
			c4.418,0,8-3.582,8-8v-33.472c9.555-3.378,15.958-12.394,16-22.528V296C420,282.745,409.255,272,396,272z M212,384H108v16h104v64
			H100c-13.255,0-24-10.745-24-24V80h208V64H76V40c0-13.255,10.745-24,24-24h192c13.255,0,24,10.745,24,24v222.128
			c-1.232-1.08-2.572-2.029-4-2.832c-0.376-0.224-0.8-0.392-1.176-0.592c-1.235-0.648-2.525-1.184-3.856-1.6
			c-0.496-0.152-0.984-0.312-1.496-0.432c-1.792-0.433-3.628-0.659-5.472-0.672h-16c-2.725-0.001-5.43,0.461-8,1.368V192
			c-0.009-2.352-0.367-4.69-1.064-6.936c13.962-16.966,11.527-42.038-5.438-56c-7.179-5.908-16.2-9.115-25.498-9.064h-96
			c-22.091,0-40,17.909-40,40s17.909,40,40,40h64V384z M226.064,170.216c-0.935,0.432-1.841,0.923-2.712,1.472
			c-0.336,0.208-0.68,0.392-1,0.608c-1.139,0.798-2.209,1.689-3.2,2.664c-0.168,0.168-0.296,0.36-0.464,0.528
			c-0.809,0.846-1.555,1.75-2.232,2.704c-0.264,0.368-0.488,0.752-0.728,1.128c-0.528,0.847-1.003,1.726-1.424,2.632
			c-0.192,0.416-0.384,0.8-0.552,1.248c-0.112,0.272-0.264,0.52-0.36,0.8H148c-13.255,0-24-10.745-24-24s10.745-24,24-24h96
			c13.255,0,24,10.745,24,24c0.004,4.114-1.069,8.157-3.112,11.728c-0.272-0.176-0.576-0.304-0.864-0.464
			c-0.288-0.16-0.512-0.28-0.8-0.416c-1.553-0.841-3.195-1.506-4.896-1.984c-0.224-0.056-0.448-0.088-0.664-0.144
			c-1.853-0.463-3.754-0.704-5.664-0.72h-16c-1.48,0.01-2.956,0.16-4.408,0.448c-0.448,0.08-0.872,0.208-1.312,0.32
			c-0.979,0.233-1.941,0.533-2.88,0.896C226.944,169.84,226.504,170.016,226.064,170.216z M388,464H228v-24h160V464z M404,416
			c0,4.418-3.582,8-8,8H228V192c0-4.418,3.582-8,8-8h16c2.77-0.013,5.344,1.426,6.784,3.792c0.785,1.264,1.205,2.72,1.216,4.208v120
			h16v-32c0-4.418,3.582-8,8-8h16c4.418,0,8,3.582,8,8v32h16v-24c0.007-2.871,1.552-5.518,4.048-6.936
			c1.2-0.697,2.564-1.064,3.952-1.064h16c4.418,0,8,3.582,8,8v24h16v-16c0-4.418,3.582-8,8-8h16c4.418,0,8,3.582,8,8V416z"/>
	</g>
</g>
<g>
	<g>
		<rect x="156" y="152" width="16" height="16"/>
	</g>
</g>
<g>
	<g>
		<rect x="188" y="152" width="16" height="16"/>
	</g>
</g>
<g>
	<g>
		<rect x="108" y="232" width="16" height="16"/>
	</g>
</g>
<g>
	<g>
		<rect x="140" y="232" width="48" height="16"/>
	</g>
</g>
<g>
	<g>
		<rect x="108" y="264" width="80" height="16"/>
	</g>

</svg>
