<svg xmlns="http://www.w3.org/2000/svg" xmlns:xlink="http://www.w3.org/1999/xlink">

<symbol id="icon-facebook" viewBox="0 0 512 512">
<path d="m297.277344 508.667969c-2.132813.347656-4.273438.667969-6.421875.960937 2.148437-.292968 4.289062-.613281 6.421875-.960937zm0 0"/><path d="m302.398438 507.792969c-1.019532.1875-2.039063.359375-3.058594.535156 1.019531-.175781 2.039062-.347656 3.058594-.535156zm0 0"/><path d="m285.136719 510.339844c-2.496094.28125-5.007813.53125-7.527344.742187 2.519531-.210937 5.03125-.460937 7.527344-.742187zm0 0"/><path d="m290.054688 509.738281c-1.199219.160157-2.40625.308594-3.609376.449219 1.203126-.140625 2.410157-.289062 3.609376-.449219zm0 0"/><path d="m309.367188 506.410156c-.898438.191406-1.800782.382813-2.703126.566406.902344-.183593 1.804688-.375 2.703126-.566406zm0 0"/><path d="m326.664062 502.113281c-.726562.207031-1.453124.402344-2.179687.605469.726563-.203125 1.453125-.398438 2.179687-.605469zm0 0"/><path d="m321.433594 503.542969c-.789063.207031-1.582032.417969-2.375.617187.792968-.199218 1.585937-.40625 2.375-.617187zm0 0"/><path d="m314.589844 505.253906c-.835938.195313-1.679688.378906-2.523438.566406.84375-.1875 1.6875-.371093 2.523438-.566406zm0 0"/><path d="m277.527344 511.089844c-1.347656.113281-2.695313.214844-4.046875.304687 1.351562-.089843 2.699219-.191406 4.046875-.304687zm0 0"/><path d="m512 256c0-141.363281-114.636719-256-256-256s-256 114.636719-256 256 114.636719 256 256 256c1.503906 0 3-.03125 4.5-.058594v-199.285156h-55v-64.097656h55v-47.167969c0-54.703125 33.394531-84.476563 82.191406-84.476563 23.367188 0 43.453125 1.742188 49.308594 2.519532v57.171875h-33.648438c-26.546874 0-31.6875 12.617187-31.6875 31.128906v40.824219h63.476563l-8.273437 64.097656h-55.203126v189.453125c107.003907-30.675781 185.335938-129.257813 185.335938-246.109375zm0 0"/><path d="m272.914062 511.429688c-2.664062.171874-5.339843.308593-8.023437.398437 2.683594-.089844 5.359375-.226563 8.023437-.398437zm0 0"/><path d="m264.753906 511.835938c-1.414062.046874-2.832031.082031-4.25.105468 1.417969-.023437 2.835938-.058594 4.25-.105468zm0 0"/>
</symbol>

<symbol id="icon-instagram" viewBox="0 0 512 512">
<path d="m305 256c0 27.0625-21.9375 49-49 49s-49-21.9375-49-49 21.9375-49 49-49 49 21.9375 49 49zm0 0"/><path d="m370.59375 169.304688c-2.355469-6.382813-6.113281-12.160157-10.996094-16.902344-4.742187-4.882813-10.515625-8.640625-16.902344-10.996094-5.179687-2.011719-12.960937-4.40625-27.292968-5.058594-15.503906-.707031-20.152344-.859375-59.402344-.859375-39.253906 0-43.902344.148438-59.402344.855469-14.332031.65625-22.117187 3.050781-27.292968 5.0625-6.386719 2.355469-12.164063 6.113281-16.902344 10.996094-4.882813 4.742187-8.640625 10.515625-11 16.902344-2.011719 5.179687-4.40625 12.964843-5.058594 27.296874-.707031 15.5-.859375 20.148438-.859375 59.402344 0 39.25.152344 43.898438.859375 59.402344.652344 14.332031 3.046875 22.113281 5.058594 27.292969 2.359375 6.386719 6.113281 12.160156 10.996094 16.902343 4.742187 4.882813 10.515624 8.640626 16.902343 10.996094 5.179688 2.015625 12.964844 4.410156 27.296875 5.0625 15.5.707032 20.144532.855469 59.398438.855469 39.257812 0 43.90625-.148437 59.402344-.855469 14.332031-.652344 22.117187-3.046875 27.296874-5.0625 12.820313-4.945312 22.953126-15.078125 27.898438-27.898437 2.011719-5.179688 4.40625-12.960938 5.0625-27.292969.707031-15.503906.855469-20.152344.855469-59.402344 0-39.253906-.148438-43.902344-.855469-59.402344-.652344-14.332031-3.046875-22.117187-5.0625-27.296874zm-114.59375 162.179687c-41.691406 0-75.488281-33.792969-75.488281-75.484375s33.796875-75.484375 75.488281-75.484375c41.6875 0 75.484375 33.792969 75.484375 75.484375s-33.796875 75.484375-75.484375 75.484375zm78.46875-136.3125c-9.742188 0-17.640625-7.898437-17.640625-17.640625s7.898437-17.640625 17.640625-17.640625 17.640625 7.898437 17.640625 17.640625c-.003906 9.742188-7.898437 17.640625-17.640625 17.640625zm0 0"/><path d="m256 0c-141.363281 0-256 114.636719-256 256s114.636719 256 256 256 256-114.636719 256-256-114.636719-256-256-256zm146.113281 316.605469c-.710937 15.648437-3.199219 26.332031-6.832031 35.683593-7.636719 19.746094-23.246094 35.355469-42.992188 42.992188-9.347656 3.632812-20.035156 6.117188-35.679687 6.832031-15.675781.714844-20.683594.886719-60.605469.886719-39.925781 0-44.929687-.171875-60.609375-.886719-15.644531-.714843-26.332031-3.199219-35.679687-6.832031-9.8125-3.691406-18.695313-9.476562-26.039063-16.957031-7.476562-7.339844-13.261719-16.226563-16.953125-26.035157-3.632812-9.347656-6.121094-20.035156-6.832031-35.679687-.722656-15.679687-.890625-20.6875-.890625-60.609375s.167969-44.929688.886719-60.605469c.710937-15.648437 3.195312-26.332031 6.828125-35.683593 3.691406-9.808594 9.480468-18.695313 16.960937-26.035157 7.339844-7.480469 16.226563-13.265625 26.035157-16.957031 9.351562-3.632812 20.035156-6.117188 35.683593-6.832031 15.675781-.714844 20.683594-.886719 60.605469-.886719s44.929688.171875 60.605469.890625c15.648437.710937 26.332031 3.195313 35.683593 6.824219 9.808594 3.691406 18.695313 9.480468 26.039063 16.960937 7.476563 7.34375 13.265625 16.226563 16.953125 26.035157 3.636719 9.351562 6.121094 20.035156 6.835938 35.683593.714843 15.675781.882812 20.683594.882812 60.605469s-.167969 44.929688-.886719 60.605469zm0 0"/>
</symbol>

<symbol id="icon-linkedin" viewBox="0 0 512 512">
<path d="m256 0c-141.363281 0-256 114.636719-256 256s114.636719 256 256 256 256-114.636719 256-256-114.636719-256-256-256zm-74.390625 387h-62.347656v-187.574219h62.347656zm-31.171875-213.1875h-.40625c-20.921875 0-34.453125-14.402344-34.453125-32.402344 0-18.40625 13.945313-32.410156 35.273437-32.410156 21.328126 0 34.453126 14.003906 34.859376 32.410156 0 18-13.53125 32.402344-35.273438 32.402344zm255.984375 213.1875h-62.339844v-100.347656c0-25.21875-9.027343-42.417969-31.585937-42.417969-17.222656 0-27.480469 11.601563-31.988282 22.800781-1.648437 4.007813-2.050781 9.609375-2.050781 15.214844v104.75h-62.34375s.816407-169.976562 0-187.574219h62.34375v26.558594c8.285157-12.78125 23.109375-30.960937 56.1875-30.960937 41.019531 0 71.777344 26.808593 71.777344 84.421874zm0 0"/>
</symbol>

<symbol id="icon-youtube" viewBox="0 0 512 512">
<path d="m224.113281 303.960938 83.273438-47.960938-83.273438-47.960938zm0 0"/><path d="m256 0c-141.363281 0-256 114.636719-256 256s114.636719 256 256 256 256-114.636719 256-256-114.636719-256-256-256zm159.960938 256.261719s0 51.917969-6.585938 76.953125c-3.691406 13.703125-14.496094 24.507812-28.199219 28.195312-25.035156 6.589844-125.175781 6.589844-125.175781 6.589844s-99.878906 0-125.175781-6.851562c-13.703125-3.6875-24.507813-14.496094-28.199219-28.199219-6.589844-24.769531-6.589844-76.949219-6.589844-76.949219s0-51.914062 6.589844-76.949219c3.6875-13.703125 14.757812-24.773437 28.199219-28.460937 25.035156-6.589844 125.175781-6.589844 125.175781-6.589844s100.140625 0 125.175781 6.851562c13.703125 3.6875 24.507813 14.496094 28.199219 28.199219 6.851562 25.035157 6.585938 77.210938 6.585938 77.210938zm0 0"/>
</symbol>

<symbol id="icon-seal" viewBox="0 0 512 512">
<path d="M477.589,167.171l-22.333-15.745-.31-27.322a8,8,0,0,0-5.089-7.362l-25.449-9.937-6.815-26.457a8,8,0,0,0-6.7-5.935L383.814,70.82,370.887,46.75a8.016,8.016,0,0,0-7.925-4.167l-27.162,3L317.46,25.32a7.994,7.994,0,0,0-8.7-2.136l-25.636,9.449L260.471,17.365a8,8,0,0,0-8.942,0L228.873,32.633l-25.638-9.45a8,8,0,0,0-8.7,2.137L176.2,45.579l-27.161-2.995a7.992,7.992,0,0,0-7.925,4.167l-12.927,24.07L101.1,74.414a8,8,0,0,0-6.7,5.936l-6.814,26.457-25.449,9.937a8,8,0,0,0-5.089,7.361l-.31,27.322L34.41,167.172a8,8,0,0,0-3.177,8.374l6.27,26.6L19.62,222.8a8,8,0,0,0-1.07,8.884L31.011,256,18.55,280.312a8,8,0,0,0,1.07,8.884L37.5,309.858l-6.27,26.6a8,8,0,0,0,3.178,8.373l22.333,15.745.31,27.322a8,8,0,0,0,5.089,7.362L87.592,405.2l6.815,26.457a8,8,0,0,0,6.7,5.935l27.083,3.593,12.927,24.07a8.016,8.016,0,0,0,7.925,4.167l27.162-2.995,18.34,20.258a8,8,0,0,0,8.7,2.136l25.636-9.449,22.656,15.268a8,8,0,0,0,8.942,0l22.656-15.268,25.638,9.45a8.008,8.008,0,0,0,8.7-2.137l18.34-20.259,27.161,3a8,8,0,0,0,7.925-4.167l12.927-24.07,27.084-3.593a8,8,0,0,0,6.7-5.936l6.814-26.457,25.449-9.937a8,8,0,0,0,5.089-7.361l.31-27.322,22.333-15.745a8,8,0,0,0,3.177-8.374l-6.27-26.6L492.38,289.2a8,8,0,0,0,1.07-8.884L480.989,256l12.461-24.312a8,8,0,0,0-1.07-8.884L474.5,202.142l6.27-26.6A8,8,0,0,0,477.589,167.171Zm-.839,62.022-11.869,23.159a7.991,7.991,0,0,0,0,7.3l11.869,23.159-17.026,19.671a8,8,0,0,0-1.738,7.071l5.968,25.316-21.26,14.989a8,8,0,0,0-3.389,6.447l-.3,26.014-24.237,9.464a8,8,0,0,0-4.836,5.457l-6.491,25.2-25.793,3.421a8,8,0,0,0-6,4.146L359.348,452.92l-25.856-2.852a8.009,8.009,0,0,0-6.807,2.583l-17.457,19.285-24.41-9a8.011,8.011,0,0,0-7.237.873L256,478.354l-21.581-14.543a8,8,0,0,0-7.237-.872l-24.408,9-17.457-19.284a8.012,8.012,0,0,0-6.807-2.583l-25.857,2.852L140.344,430a8,8,0,0,0-6-4.146l-25.792-3.421-6.492-25.2a8,8,0,0,0-4.836-5.456l-24.237-9.464L72.7,356.3a8,8,0,0,0-3.389-6.448l-21.26-14.988,5.967-25.317a7.994,7.994,0,0,0-1.738-7.07L35.25,282.807l11.869-23.159a7.991,7.991,0,0,0,0-7.3L35.25,229.193l17.026-19.671a8,8,0,0,0,1.738-7.071l-5.968-25.316,21.26-14.989a8,8,0,0,0,3.389-6.447l.3-26.014,24.237-9.464a8,8,0,0,0,4.836-5.457l6.491-25.2,25.793-3.421a8,8,0,0,0,6-4.146L152.652,59.08l25.856,2.852a8.02,8.02,0,0,0,6.807-2.583l17.457-19.285,24.41,9a8.011,8.011,0,0,0,7.237-.873L256,33.646l21.581,14.543a8,8,0,0,0,7.237.872l24.408-9,17.457,19.284a8.016,8.016,0,0,0,6.807,2.583l25.857-2.852L371.656,82a8,8,0,0,0,6,4.146l25.792,3.421,6.492,25.2a8,8,0,0,0,4.836,5.456l24.237,9.464L439.3,155.7a8,8,0,0,0,3.389,6.448l21.26,14.988-5.967,25.317a7.994,7.994,0,0,0,1.738,7.07Z"/><path d="M400,256v.336h16V256a162.509,162.509,0,0,0-.862-16.71l-15.914,1.652A146.786,146.786,0,0,1,400,256Z"/><path d="M124.34,314.416l-14.621,6.5a160.486,160.486,0,0,0,7.6,14.927l13.86-7.994A144.357,144.357,0,0,1,124.34,314.416Z"/><path d="M148.779,374.761a161.176,161.176,0,0,0,12.99,10.559L171.2,372.4a145.236,145.236,0,0,1-11.694-9.508Z"/><path d="M363.034,159.666a145.482,145.482,0,0,1,9.493,11.714l12.938-9.414a161.908,161.908,0,0,0-10.54-13Z"/><path d="M206.315,408.134a160.045,160.045,0,0,0,16.176,4.35l3.336-15.648a143.491,143.491,0,0,1-14.547-3.913Z"/><path d="M396.885,226.06l15.654-3.311a159.737,159.737,0,0,0-4.324-16.185L393,211.5A143.423,143.423,0,0,1,396.885,226.06Z"/><path d="M387.6,197.438l14.613-6.514A159.893,159.893,0,0,0,394.6,176l-13.85,8.012A144.047,144.047,0,0,1,387.6,197.438Z"/><path d="M239.026,415.109a162.471,162.471,0,0,0,16.709.89l.026-16a146.142,146.142,0,0,1-15.055-.8Z"/><path d="M139.38,340.492l-12.949,9.4a160.8,160.8,0,0,0,10.527,13.018l11.9-10.695A145.314,145.314,0,0,1,139.38,340.492Z"/><path d="M363.09,137.121a161.154,161.154,0,0,0-13-10.547l-9.416,12.936a144.918,144.918,0,0,1,11.7,9.494Z"/><path d="M336.059,117.441a160.432,160.432,0,0,0-14.908-7.616l-6.523,14.61a144.437,144.437,0,0,1,13.415,6.854Z"/><path d="M211.578,118.979l-4.93-15.22a159.361,159.361,0,0,0-15.644,6l6.506,14.617A143.736,143.736,0,0,1,211.578,118.979Z"/><path d="M241.021,112.769l-1.642-15.916a160.692,160.692,0,0,0-16.542,2.588l3.3,15.657A143.628,143.628,0,0,1,241.021,112.769Z"/><path d="M272.8,96.871A162.463,162.463,0,0,0,256.089,96l-.008,16a146.433,146.433,0,0,1,15.055.785Z"/><path d="M305.517,103.812a160.3,160.3,0,0,0-16.178-4.333l-3.322,15.651a144,144,0,0,1,14.552,3.9Z"/><path d="M372.35,340.863l12.92,9.44a161,161,0,0,0,9.156-14.014l-13.832-8.041A144.874,144.874,0,0,1,372.35,340.863Z"/><path d="M327.778,380.864l7.989,13.864a160.856,160.856,0,0,0,14.051-9.108l-9.39-12.953A144.789,144.789,0,0,1,327.778,380.864Z"/><path d="M175.787,394.47a160.228,160.228,0,0,0,14.9,7.634l6.539-14.6a143.939,143.939,0,0,1-13.407-6.869Z"/><path d="M352.154,363.2,362.842,375.1A161.4,161.4,0,0,0,374.7,363.287l-11.867-10.732A145.267,145.267,0,0,1,352.154,363.2Z"/><path d="M387.468,314.848l14.6,6.545a159.379,159.379,0,0,0,6.038-15.623L392.9,300.8A143.733,143.733,0,0,1,387.468,314.848Z"/><path d="M300.271,393.069l4.912,15.227a159.193,159.193,0,0,0,15.652-5.979l-6.49-14.625A143.129,143.129,0,0,1,300.271,393.069Z"/><path d="M115.148,225.9,99.5,222.577a160.359,160.359,0,0,0-2.616,16.538l15.912,1.67A144.113,144.113,0,0,1,115.148,225.9Z"/><path d="M112,256v-.168H96V256a162.16,162.16,0,0,0,.845,16.535l15.916-1.637A146.2,146.2,0,0,1,112,256Z"/><path d="M270.82,399.247l1.625,15.918a160.779,160.779,0,0,0,16.543-2.57l-3.279-15.66A144.624,144.624,0,0,1,270.82,399.247Z"/><path d="M124.467,197.3l-14.608-6.529a159.819,159.819,0,0,0-6.019,15.63l15.213,4.955A143.709,143.709,0,0,1,124.467,197.3Z"/><path d="M115.083,285.784l-15.658,3.293a159.813,159.813,0,0,0,4.306,16.191l15.225-4.922A143.21,143.21,0,0,1,115.083,285.784Z"/><path d="M396.818,286.252l15.647,3.346a160.286,160.286,0,0,0,2.635-16.536l-15.911-1.687A144.248,144.248,0,0,1,396.818,286.252Z"/><path d="M159.727,148.912l-10.7-11.894a161.786,161.786,0,0,0-11.845,11.828l11.879,10.718A145.863,145.863,0,0,1,159.727,148.912Z"/><path d="M139.557,171.266l-12.93-9.426a161.147,161.147,0,0,0-9.142,14.023l13.842,8.026A144.622,144.622,0,0,1,139.557,171.266Z"/><path d="M184.084,131.215l-8-13.856a161.2,161.2,0,0,0-14.044,9.124l9.406,12.944A144.381,144.381,0,0,1,184.084,131.215Z"/><path d="M384,256A128,128,0,1,0,256,384,128.146,128.146,0,0,0,384,256ZM256,368A112,112,0,1,1,368,256,112.127,112.127,0,0,1,256,368Z"/><path d="M328.971,207.029a24.031,24.031,0,0,0-33.942,0L224,278.059l-15.029-15.03a24,24,0,0,0-33.942,33.942l32,32a24,24,0,0,0,33.942,0l88-88a24,24,0,0,0,0-33.942Zm-11.315,22.627-88,88a8,8,0,0,1-11.312,0l-32-32a8,8,0,0,1,11.314-11.312l20.687,20.685a8,8,0,0,0,11.313,0l76.687-76.685a8,8,0,1,1,11.312,11.312Z"/><path d="M256,64C150.131,64,64,150.131,64,256s86.131,192,192,192,192-86.131,192-192S361.869,64,256,64Zm0,368c-97.047,0-176-78.953-176-176S158.953,80,256,80s176,78.953,176,176S353.047,432,256,432Z"/>
</symbol>

<symbol id="icon-location" viewBox="0 0 32 32">
<path d="M16 0C10.477 0 6 4.477 6 10c0 10 10 22 10 22s10-12 10-22c0-5.523-4.477-10-10-10zm0 16.125a6.125 6.125 0 1 1 0-12.25 6.125 6.125 0 0 1 0 12.25zM12.125 10a3.875 3.875 0 1 1 7.75 0 3.875 3.875 0 0 1-7.75 0z"></path>
</symbol>

<symbol id="icon-rocket" viewBox="0 0 32 32">
<path d="M22 2L12 12H6l-6 8s6.357-1.77 10.065-.94L0 32l13.184-10.255C15.023 25.953 12 32 12 32l8-6v-6l10-10 2-10-10 2z"></path>
</symbol>

<symbol id="icon-gps" viewBox="0 0 296.999 296.999">
<path d="M141.914,185.802c1.883,1.656,4.234,2.486,6.587,2.486c2.353,0,4.705-0.83,6.587-2.486
c2.385-2.101,58.391-52.021,58.391-103.793c0-35.842-29.148-65.002-64.977-65.002c-35.83,0-64.979,29.16-64.979,65.002
C83.521,133.781,139.529,183.701,141.914,185.802z M148.501,65.025c9.302,0,16.845,7.602,16.845,16.984
c0,9.381-7.543,16.984-16.845,16.984c-9.305,0-16.847-7.604-16.847-16.984C131.654,72.627,139.196,65.025,148.501,65.025z"/>
<path d="M273.357,185.773l-7.527-26.377c-1.222-4.281-5.133-7.232-9.583-7.232h-53.719c-1.942,2.887-3.991,5.785-6.158,8.699
c-15.057,20.23-30.364,33.914-32.061,35.41c-4.37,3.848-9.983,5.967-15.808,5.967c-5.821,0-11.434-2.117-15.81-5.969
c-1.695-1.494-17.004-15.18-32.06-35.408c-2.167-2.914-4.216-5.813-6.158-8.699h-53.72c-4.45,0-8.361,2.951-9.583,7.232
l-8.971,31.436l200.529,36.73L273.357,185.773z"/>
<path d="M296.617,267.291l-19.23-67.396l-95.412,80.098h105.06c3.127,0,6.072-1.467,7.955-3.963
C296.873,273.533,297.474,270.297,296.617,267.291z"/>
<path d="M48.793,209.888l-30.44-5.576L0.383,267.291c-0.857,3.006-0.256,6.242,1.628,8.738c1.883,2.496,4.828,3.963,7.955,3.963
h38.827V209.888z"/>
<polygon points="62.746,212.445 62.746,279.992 160.273,279.992 208.857,239.207 	"/>
</symbol>


<symbol id="icon-time" viewBox="0 0 512 512">
<path id="XMLID_2047_" d="M461.503,492H256.084c-130.131,0-236-105.869-236-236s105.869-236,236-236      c51.219,0,100.463,16.477,141.053,46.789h-10.975c-5.522,0-10,4.478-10,10s4.478,10,10,10h37.974c5.522,0,10-4.478,10-10V38.815      c0-5.522-4.478-10-10-10s-10,4.478-10,10V54.62C369.173,19.274,313.782,0,256.084,0c-68.38,0-132.667,26.629-181.02,74.98      C26.713,123.333,0.084,187.62,0.084,256s26.629,132.667,74.98,181.02c48.353,48.352,112.64,74.98,181.02,74.98h205.419      c5.522,0,10-4.478,10-10S467.025,492,461.503,492z"/>
<path id="XMLID_2046_" d="M108.278,151.21c-4.671-2.945-10.847-1.544-13.792,3.128c-22.702,36.018-32.722,79.301-28.211,121.878      c4.577,43.215,24.053,83.969,54.838,114.755c37.212,37.211,86.091,55.816,134.971,55.816s97.759-18.605,134.971-55.816      c74.422-74.423,74.422-195.519,0-269.941c-30.834-30.833-71.654-50.315-114.94-54.857c-42.654-4.479-85.988,5.624-122.02,28.438      c-4.666,2.955-6.054,9.133-3.1,13.799c2.955,4.666,9.133,6.053,13.799,3.1c66.86-42.335,156.071-32.383,212.118,23.664      c66.624,66.625,66.624,175.031,0,241.656c-33.316,33.316-77.064,49.973-120.828,49.969      c-43.753-0.005-87.52-16.66-120.828-49.969c-56.833-56.833-66.64-143.939-23.85-211.826      C114.351,160.33,112.951,154.155,108.278,151.21z"/>
<path id="XMLID_2045_" d="M149.374,210.024c-15.962,0-28.947,12.985-28.947,28.947c0,5.522,4.478,10,10,10s10-4.478,10-10      c0-4.934,4.014-8.947,8.947-8.947c7.885,0,8.948,4.522,8.948,8.947c0,14.462-20.748,35.161-33.819,44.806      c-3.481,2.561-4.925,7.067-3.578,11.174c1.348,4.106,5.181,6.883,9.502,6.883h37.896c5.522,0,10-4.478,10-10s-4.478-10-10-10      h-11.781c10.788-11.495,21.781-27.08,21.781-42.862C178.322,221.657,166.688,210.024,149.374,210.024z"/>
<path id="XMLID_2044_" d="M199.392,210.024c-5.522,0-10,4.478-10,10v35.936c0,5.522,4.478,10,10,10h24.491v26.016      c0,5.522,4.478,10,10,10s10-4.478,10-10v-71.951c0-5.522-4.478-10-10-10s-10,4.478-10,10v25.936h-14.491v-25.936      C209.392,214.502,204.914,210.024,199.392,210.024z"/>
<path id="XMLID_2043_" d="M275.153,301.836c3.798,0,7.429-2.175,9.106-5.856l32.711-71.81c2.289-5.026,0.07-10.956-4.955-13.246      c-5.028-2.29-10.955-0.071-13.246,4.955l-32.711,71.81c-2.289,5.026-0.07,10.956,4.955,13.246      C272.358,301.547,273.767,301.836,275.153,301.836z"/>
<path id="XMLID_2042_" d="M357.325,301.412c0.958,0.288,1.926,0.425,2.877,0.425c4.302,0,8.274-2.798,9.574-7.13l21.543-71.81      c0.908-3.027,0.332-6.307-1.556-8.843c-1.887-2.536-4.861-4.03-8.022-4.03h-43.086c-5.522,0-10,4.478-10,10s4.478,10,10,10      h29.646l-17.681,58.937C349.033,294.25,352.035,299.825,357.325,301.412z"/>
<path id="XMLID_2040_" d="M128.189,118.1c-2.64,0-5.22,1.07-7.08,2.931c-1.859,1.859-2.93,4.439-2.93,7.069s1.07,5.21,2.93,7.07      c1.86,1.86,4.44,2.93,7.08,2.93c2.63,0,5.21-1.069,7.07-2.93s2.92-4.44,2.92-7.07s-1.06-5.21-2.92-7.069      C133.399,119.17,130.819,118.1,128.189,118.1z"/>
<path id="XMLID_2039_" d="M501.916,492h-0.135c-5.522,0-10,4.478-10,10s4.478,10,10,10h0.135c5.522,0,10-4.478,10-10      S507.438,492,501.916,492z"/>
</symbol>


<symbol id="icon-phone" viewBox="0 0 60 60">
<path d="M42.595,0H17.405C14.977,0,13,1.977,13,4.405v51.189C13,58.023,14.977,60,17.405,60h25.189C45.023,60,47,58.023,47,55.595
V4.405C47,1.977,45.023,0,42.595,0z M15,8h30v38H15V8z M17.405,2h25.189C43.921,2,45,3.079,45,4.405V6H15V4.405
C15,3.079,16.079,2,17.405,2z M42.595,58H17.405C16.079,58,15,56.921,15,55.595V48h30v7.595C45,56.921,43.921,58,42.595,58z"/>
<path d="M30,49c-2.206,0-4,1.794-4,4s1.794,4,4,4s4-1.794,4-4S32.206,49,30,49z M30,55c-1.103,0-2-0.897-2-2s0.897-2,2-2
s2,0.897,2,2S31.103,55,30,55z"/>
<path d="M26,5h4c0.553,0,1-0.447,1-1s-0.447-1-1-1h-4c-0.553,0-1,0.447-1,1S25.447,5,26,5z"/>
<path d="M33,5h1c0.553,0,1-0.447,1-1s-0.447-1-1-1h-1c-0.553,0-1,0.447-1,1S32.447,5,33,5z"/>
<path d="M56.612,4.569c-0.391-0.391-1.023-0.391-1.414,0s-0.391,1.023,0,1.414c3.736,3.736,3.736,9.815,0,13.552
c-0.391,0.391-0.391,1.023,0,1.414c0.195,0.195,0.451,0.293,0.707,0.293s0.512-0.098,0.707-0.293
C61.128,16.434,61.128,9.085,56.612,4.569z"/>
<path d="M52.401,6.845c-0.391-0.391-1.023-0.391-1.414,0s-0.391,1.023,0,1.414c1.237,1.237,1.918,2.885,1.918,4.639
s-0.681,3.401-1.918,4.638c-0.391,0.391-0.391,1.023,0,1.414c0.195,0.195,0.451,0.293,0.707,0.293s0.512-0.098,0.707-0.293
c1.615-1.614,2.504-3.764,2.504-6.052S54.017,8.459,52.401,6.845z"/>
<path d="M4.802,5.983c0.391-0.391,0.391-1.023,0-1.414s-1.023-0.391-1.414,0c-4.516,4.516-4.516,11.864,0,16.38
c0.195,0.195,0.451,0.293,0.707,0.293s0.512-0.098,0.707-0.293c0.391-0.391,0.391-1.023,0-1.414
C1.065,15.799,1.065,9.72,4.802,5.983z"/>
<path d="M9.013,6.569c-0.391-0.391-1.023-0.391-1.414,0c-1.615,1.614-2.504,3.764-2.504,6.052s0.889,4.438,2.504,6.053
c0.195,0.195,0.451,0.293,0.707,0.293s0.512-0.098,0.707-0.293c0.391-0.391,0.391-1.023,0-1.414
c-1.237-1.237-1.918-2.885-1.918-4.639S7.775,9.22,9.013,7.983C9.403,7.593,9.403,6.96,9.013,6.569z"/>
</symbol>


<symbol id="icon-map" viewBox="0 0 64 64">
<g><path d="m48 19c3.859 0 7-3.14 7-7s-3.141-7-7-7-7 3.14-7 7 3.141 7 7 7zm0-12c2.757 0 5 2.243 5 5s-2.243 5-5 5-5-2.243-5-5 2.243-5 5-5z"/><path d="m16 45c-1.654 0-3 1.346-3 3s1.346 3 3 3 3-1.346 3-3-1.346-3-3-3zm0 4c-.552 0-1-.449-1-1s.448-1 1-1 1 .449 1 1-.448 1-1 1z"/>
<path d="m53.935 23c.303-.476.62-.942.967-1.389l1.78-2.289c1.495-1.921 2.318-4.319 2.318-6.753v-.569c0-6.065-4.935-11-11-11s-11 4.935-11 11v.569c0 2.434.823 4.833 2.317 6.753l1.78 2.289c.347.447.665.914.967 1.389h-41.064v40h62v-40zm-13.039-4.905c-1.223-1.573-1.896-3.535-1.896-5.526v-.569c0-4.962 4.037-9 9-9s9 4.038 9 9v.569c0 1.991-.673 3.954-1.896 5.526l-1.78 2.289c-2.144 2.756-3.537 6.039-4.031 9.495-.092.639-.647 1.121-1.293 1.121s-1.201-.482-1.293-1.122c-.494-3.456-1.888-6.739-4.031-9.495zm7.104 16.905c-5.494 0-9-1.777-9-3 0-.804 1.794-2.151 5.57-2.729.057.296.114.592.157.891.232 1.618 1.639 2.838 3.273 2.838s3.041-1.22 3.273-2.838c.043-.299.099-.595.157-.89 3.776.577 5.57 1.924 5.57 2.728 0 1.223-3.506 3-9 3zm-3.929-7.686c-4.332.701-7.071 2.484-7.071 4.686 0 3.045 4.982 4.776 10 4.98v5.02c0 .551-.448 1-1 1h-10c-.552 0-1-.449-1-1v-5c0-1.654-1.346-3-3-3s-3 1.346-3 3v19c0 .551-.448 1-1 1s-1-.449-1-1v-6c0-1.654-1.346-3-3-3h-1.08c-.339-2.353-1.848-4.326-3.92-5.315v-16.685h24.168c.354.75.655 1.523.903 2.314zm-31.071 27.001c.911.434 1.926.685 3 .685.34 0 .672-.033 1-.08v6.08h-4zm3-1.315c-2.757 0-5-2.243-5-5s2.243-5 5-5 5 2.243 5 5-2.243 5-5 5zm-3-28h4v16.08c-.328-.047-.66-.08-1-.08-1.074 0-2.089.251-3 .685v-6.685h-10v-4h10zm-2 0v4h-8v-4zm-8 12h8v6.111c-1.235 1.262-2 2.987-2 4.889s.765 3.627 2 4.889v8.111h-8zm58 24h-42v-6.685c2.072-.989 3.581-2.962 3.92-5.315h1.08c.552 0 1 .449 1 1v6c0 1.654 1.346 3 3 3s3-1.346 3-3v-19c0-.551.448-1 1-1s1 .449 1 1v5c0 1.654 1.346 3 3 3h10c1.654 0 3-1.346 3-3v-5.02c5.018-.204 10-1.935 10-4.98 0-2.202-2.739-3.985-7.071-4.686.248-.792.55-1.564.903-2.314h8.168z"/><path d="m57 57h2v2h-2z"/><path d="m53 57h2v2h-2z"/>
<path d="m49 57h2v2h-2z"/><path d="m49 53h10v2h-10z"/><path d="m49 49h10v2h-10z"/></g>
</symbol>


<symbol id="icon-link" viewBox="0 0 512 512">
<path d="m162.457 434.408c-23.427 23.444-61.433 23.444-84.861 0-23.075-23.059-23.443-60.249-1.088-83.757l126.465-126.465c-39.112-10.458-82.481-.832-113.748 28.904l-56.231 56.231c-44.711 47.015-43.975 121.395 2.176 167.514 46.855 46.887 122.867 46.887 169.722 0l51.846-51.846c31.425-31.404 41.785-75.905 31.086-115.947z"/><path d="m476.835 35.17c-46.119-46.151-120.499-46.887-167.514-2.176l-56.231 56.231c-29.735 31.268-39.361 74.637-28.904 113.748l126.465-126.465c23.508-22.355 60.697-21.987 83.757 1.088 23.444 23.428 23.443 61.433 0 84.861l-125.367 125.367c40.042 10.699 84.543.34 115.947-31.086l51.846-51.846c46.888-46.855 46.888-122.867.001-169.722z"/><path d="m164.774 347.228c11.714 11.722 30.717 11.722 42.43 0l140.023-140.023c11.722-11.714 11.722-30.717 0-42.43-11.53-11.538-30.125-11.722-41.878-.544l-141.12 141.12c-11.177 11.752-10.993 30.347.545 41.877z"/>
</symbol>




<symbol id="icon-copy" viewBox="0 0 512 512">
<path d="M256,0C114.615,0,0,114.615,0,256s114.615,256,256,256s256-114.615,256-256C511.718,114.732,397.268,0.282,256,0z
M256,494.933C124.041,494.933,17.067,387.959,17.067,256S124.041,17.067,256,17.067S494.933,124.041,494.933,256
C494.652,387.842,387.842,494.652,256,494.933z"/>
<path d="M341.333,145.067h-128c-9.426,0-17.067,7.641-17.067,17.067V204.8h-34.133c-9.426,0-17.067,7.641-17.067,17.067V358.4
c0,9.426,7.641,17.067,17.067,17.067h128c9.426,0,17.067-7.641,17.067-17.067v-42.667h34.133c9.426,0,17.067-7.641,17.067-17.067
V162.133C358.4,152.708,350.759,145.067,341.333,145.067z M290.133,358.4h-128V221.867h128V358.4z M341.333,298.667H307.2v-85.333
c0-4.713-3.82-8.533-8.533-8.533h-85.333v-42.667h128V298.667z"/>
</symbol>


<symbol id="icon-copy-2" viewBox="0 0 561 561">
<path d="M395.25,0h-306c-28.05,0-51,22.95-51,51v357h51V51h306V0z M471.75,102h-280.5c-28.05,0-51,22.95-51,51v357
c0,28.05,22.95,51,51,51h280.5c28.05,0,51-22.95,51-51V153C522.75,124.95,499.8,102,471.75,102z M471.75,510h-280.5V153h280.5V510
z"/>
</symbol>

<symbol id="icon-mail_circled2" viewBox="0 0 32 32">
<path d="M16 0C7.163 0 0 7.163 0 16s7.163 16 16 16 16-7.163 16-16S24.837 0 16 0zM8 8h16c.286 0 .563.061.817.177L16 18.463 7.183 8.176c.254-.116.531-.177.817-.177zM6 22V10c0-.042.002-.084.004-.125l5.864 6.842-5.8 5.8A1.983 1.983 0 0 1 5.999 22zm18 2H8c-.177 0-.35-.024-.517-.069l5.691-5.691L16 21.537l2.826-3.297 5.691 5.691c-.167.045-.34.069-.517.069zm2-2c0 .177-.024.35-.069.517l-5.8-5.8 5.865-6.842c.003.041.004.083.004.125v12z"></path></symbol> 


<symbol id="icon-mail_circled" viewBox="0 0 299.997 299.997">
<path d="M149.996,0C67.157,0,0.001,67.158,0.001,149.997c0,82.837,67.156,150,149.995,150s150-67.163,150-150
C299.996,67.158,232.835,0,149.996,0z M149.999,52.686l88.763,55.35H61.236L149.999,52.686z M239.868,196.423h-0.009
c0,8.878-7.195,16.072-16.072,16.072H76.211c-8.878,0-16.072-7.195-16.072-16.072v-84.865c0-0.939,0.096-1.852,0.252-2.749
l84.808,52.883c0.104,0.065,0.215,0.109,0.322,0.169c0.112,0.062,0.226,0.122,0.34,0.179c0.599,0.309,1.216,0.558,1.847,0.721
c0.065,0.018,0.13,0.026,0.195,0.041c0.692,0.163,1.393,0.265,2.093,0.265h0.005c0.005,0,0.01,0,0.01,0
c0.7,0,1.401-0.099,2.093-0.265c0.065-0.016,0.13-0.023,0.195-0.041c0.63-0.163,1.245-0.412,1.847-0.721
c0.114-0.057,0.228-0.117,0.34-0.179c0.106-0.06,0.218-0.104,0.322-0.169l84.808-52.883c0.156,0.897,0.252,1.808,0.252,2.749
V196.423z"/>
</symbol>

<symbol id="icon-phone_circled" viewBox="0 0 512 512">
<path d="M436.992,74.953c-99.989-99.959-262.08-99.935-362.039,0.055s-99.935,262.08,0.055,362.039s262.08,99.935,362.039-0.055
c48.006-48.021,74.968-113.146,74.953-181.047C511.986,188.055,485.005,122.951,436.992,74.953z M387.703,356.605
c-0.011,0.011-0.022,0.023-0.034,0.034v-0.085l-12.971,12.885c-16.775,16.987-41.206,23.976-64.427,18.432
c-23.395-6.262-45.635-16.23-65.877-29.525c-18.806-12.019-36.234-26.069-51.968-41.899
c-14.477-14.371-27.483-30.151-38.827-47.104c-12.408-18.242-22.229-38.114-29.184-59.051
c-7.973-24.596-1.366-51.585,17.067-69.717l15.189-15.189c4.223-4.242,11.085-4.257,15.326-0.034
c0.011,0.011,0.023,0.022,0.034,0.034l47.957,47.957c4.242,4.223,4.257,11.085,0.034,15.326c-0.011,0.011-0.022,0.022-0.034,0.034
l-28.16,28.16c-8.08,7.992-9.096,20.692-2.389,29.867c10.185,13.978,21.456,27.131,33.707,39.339
c13.659,13.718,28.508,26.197,44.373,37.291c9.167,6.394,21.595,5.316,29.525-2.56l27.221-27.648
c4.223-4.242,11.085-4.257,15.326-0.034c0.011,0.011,0.022,0.022,0.034,0.034l48.043,48.128
C391.911,345.502,391.926,352.363,387.703,356.605z"/>
</symbol>

<symbol id="icon-download" viewBox="0 0 477.827 477.827">
<path d="M441.537,160.625c1.489-7.981,2.243-16.082,2.253-24.201C443.699,61.019,382.498-0.035,307.093,0.056
c-57.402,0.069-108.63,36.034-128.194,89.999c-35.029-13.944-74.73,3.148-88.675,38.177c-1.207,3.032-2.195,6.146-2.956,9.319
c-55.932,8.365-94.492,60.488-86.127,116.42c7.502,50.163,50.596,87.275,101.316,87.254h85.333
c9.426,0,17.067-7.641,17.067-17.067c0-9.426-7.641-17.067-17.067-17.067h-85.333c-37.703,0-68.267-30.564-68.267-68.267
s30.564-68.267,68.267-68.267c9.426,0,17.067-7.641,17.067-17.067c0.031-18.851,15.338-34.108,34.189-34.077
c8.915,0.015,17.471,3.517,23.837,9.757c6.713,6.616,17.519,6.537,24.135-0.176c2.484-2.521,4.123-5.751,4.69-9.245
c9.264-55.733,61.954-93.403,117.687-84.139c55.733,9.264,93.403,61.954,84.139,117.687c-0.552,3.323-1.269,6.617-2.146,9.869
c-1.962,7.124,0.883,14.701,7.049,18.773c31.416,20.845,39.985,63.212,19.139,94.628c-12.617,19.015-33.9,30.468-56.72,30.522
h-51.2c-9.426,0-17.067,7.641-17.067,17.067c0,9.426,7.641,17.067,17.067,17.067h51.2
c56.554-0.053,102.357-45.943,102.303-102.497C477.798,208.625,464.526,180.06,441.537,160.625z"/>
<path d="M353.07,363.292c-6.614-6.387-17.099-6.387-23.712,0l-56.235,56.201V170.558c0-9.426-7.641-17.067-17.067-17.067
c-9.426,0-17.067,7.641-17.067,17.067v248.934l-56.201-56.201c-6.78-6.548-17.584-6.36-24.132,0.419
c-6.388,6.614-6.388,17.099,0,23.713l85.333,85.333c6.656,6.673,17.463,6.687,24.136,0.03c0.01-0.01,0.02-0.02,0.031-0.03
l85.333-85.333C360.038,380.644,359.85,369.84,353.07,363.292z"/>
</symbol>

<symbol id="icon-install" viewBox="0 0 354.355 354.355">
<path d="M297.842,246.044c-0.089-1.293-0.159-2.568-0.298-3.903c-0.939-9.734,5.452-12.777,11.568-16.826
c3.437-2.276,4.708-5.253,4.344-9.259c-1.115-12.477-27.021-20.783-17.291-33.79h29.79V0H40.593v49.943h18.75V14.061h247.865
v152.572H59.343v-48.793h-18.75v64.427h108.312v14.136c-23.761,1.191-40.063,3.621-40.063,6.423c0,3.978,32.852,7.202,73.396,7.202
c40.537,0,73.401-3.218,73.401-7.202c0-2.725-15.344-5.087-37.986-6.314v-14.237h72.493c-3.73,8.486,2.606,16.666,10.016,24.081
c3.018,3.038,12.452,10.38,4.408,15.696c-3.272,2.158-5.948,3.954-8.46,7.013c-4.147,5.051-3.918,10.982-3.567,16.981H15.077
v108.311h336.399V246.044H297.842z M338.978,341.857H27.578v-83.316h311.399V341.857z M63.507,284.051H46.32V266.87h17.188V284.051
z M90.845,284.051h-17.18V266.87h17.18V284.051z M118.963,284.051h-17.182V266.87h17.182V284.051z M146.301,284.051h-17.178V266.87
h17.178V284.051z M175.202,284.051h-17.18V266.87h17.18V284.051z M202.54,284.051h-17.183V266.87h17.183V284.051z M230.671,284.051
h-17.191V266.87h17.191V284.051z M258.01,284.051h-17.188V266.87h17.188V284.051z M51.783,308.785H34.61v-17.183h17.173V308.785z
M79.128,308.785H61.943v-17.183h17.178v17.183H79.128z M107.246,308.785H90.061v-17.183h17.185V308.785z M134.583,308.785h-17.18
v-17.183h17.18V308.785z M163.486,308.785h-17.185v-17.183h17.185V308.785z M190.83,308.785h-17.19v-17.183h17.19V308.785z
M218.944,308.785H201.77v-17.183h17.175V308.785z M246.282,308.785h-17.176v-17.183h17.176V308.785z M307.941,308.785h-17.183
v-17.183h17.183V308.785z M305.911,314.513h17.177v17.183h-17.177V314.513z M276.232,314.513h17.188v17.183h-17.188V314.513z
M40.454,317.638h17.185v17.182H40.454V317.638z M67.798,317.638H84.99v17.182H67.798V317.638z M95.926,317.638h17.18v17.182
h-17.18V317.638z M123.258,317.638h17.188v17.182h-17.188V317.638z M152.167,317.638h17.174v17.182h-17.174V317.638z
M179.5,317.638h17.185v17.182H179.5V317.638z M207.625,317.638h17.174v17.182h-17.174V317.638z M234.958,317.638h17.188v17.182
h-17.188V317.638z M299.976,264.292h-26.202v9.461h26.202V264.292z M298.715,272.488h-23.677v-6.943h23.688v6.943H298.715z
M331.483,264.292h-26.19v9.461h26.19V264.292z M330.229,272.488h-23.697v-6.943h23.697V272.488z M77.89,23.962
c1.065-0.807,2.534-0.802,3.598,0.017l72.726,55.916c0.738,0.553,1.17,1.422,1.17,2.347c0,0.926-0.433,1.792-1.16,2.348
l-72.731,55.92c-0.528,0.403-1.17,0.605-1.805,0.605c-0.626,0-1.261-0.197-1.786-0.594c-1.06-0.801-1.464-2.218-0.976-3.453
l14.631-37.026H5.843c-1.642,0-2.965-1.327-2.965-2.958V67.409c0-1.642,1.323-2.971,2.965-2.971h85.708L76.922,27.412
C76.427,26.173,76.831,24.761,77.89,23.962z"/>
</symbol>


<symbol id="icon-arrow-right-1" viewBox="0 0 512 512">
<path d="M506.134,241.843c-0.006-0.006-0.011-0.013-0.018-0.019l-104.504-104c-7.829-7.791-20.492-7.762-28.285,0.068
c-7.792,7.829-7.762,20.492,0.067,28.284L443.558,236H20c-11.046,0-20,8.954-20,20c0,11.046,8.954,20,20,20h423.557
l-70.162,69.824c-7.829,7.792-7.859,20.455-0.067,28.284c7.793,7.831,20.457,7.858,28.285,0.068l104.504-104
c0.006-0.006,0.011-0.013,0.018-0.019C513.968,262.339,513.943,249.635,506.134,241.843z"/>
</symbol>


<symbol id="icon-arrow-right-2" viewBox="0 0 512 512">
<path style="fill:#2196F3;" d="M511.189,259.954c1.649-3.989,0.731-8.579-2.325-11.627l-192-192
c-4.237-4.093-10.99-3.975-15.083,0.262c-3.992,4.134-3.992,10.687,0,14.82l173.803,173.803H10.667
C4.776,245.213,0,249.989,0,255.88c0,5.891,4.776,10.667,10.667,10.667h464.917L301.803,440.328
c-4.237,4.093-4.355,10.845-0.262,15.083c4.093,4.237,10.845,4.354,15.083,0.262c0.089-0.086,0.176-0.173,0.262-0.262l192-192
C509.872,262.42,510.655,261.246,511.189,259.954z"/>
<path d="M309.333,458.546c-5.891,0.011-10.675-4.757-10.686-10.648c-0.005-2.84,1.123-5.565,3.134-7.571L486.251,255.88
L301.781,71.432c-4.093-4.237-3.975-10.99,0.262-15.083c4.134-3.992,10.687-3.992,14.82,0l192,192
c4.164,4.165,4.164,10.917,0,15.083l-192,192C314.865,457.426,312.157,458.546,309.333,458.546z"/>
<path d="M501.333,266.546H10.667C4.776,266.546,0,261.771,0,255.88c0-5.891,4.776-10.667,10.667-10.667h490.667
c5.891,0,10.667,4.776,10.667,10.667C512,261.771,507.224,266.546,501.333,266.546z"/>
</symbol>


<symbol id="icon-download-phone" viewBox="0 0 950 950.001">
<path d="M95.532,171.291v731.634c0,25.999,21.077,47.076,47.076,47.076h452.304c25.999,0,47.076-21.077,47.076-47.076v-239
c-10.036,7.265-22.097,11.217-34.629,11.217c-13.029,0-25.554-4.256-35.816-12.08v104.296c0,19.297-15.642,34.938-34.939,34.938
H200.916c-19.296,0-34.939-15.643-34.939-34.938V230.766c0-19.296,15.642-34.938,34.939-34.938h206.413v-71.613H142.607
C116.607,124.215,95.532,145.291,95.532,171.291z M368.759,853.03c14.104,0,25.535,11.433,25.535,25.534
c0,14.103-11.433,25.535-25.535,25.535c-14.102,0-25.535-11.432-25.535-25.535C343.224,864.462,354.657,853.03,368.759,853.03z"/>
<path d="M750.244,0H462.795c-16.679,0-30.201,13.521-30.201,30.201v94.014v71.613V414.89H373.94
c-12.446,0-18.411,15.285-9.256,23.715l206.857,190.461l12.88,11.859c6.481,5.967,14.709,8.951,22.938,8.951
c8.228,0,16.455-2.984,22.937-8.951l11.692-10.766l208.045-191.555c9.156-8.43,3.191-23.715-9.255-23.715h-58.655V31.878
C782.122,14.272,767.849,0,750.244,0z"/>
</symbol>


<symbol id="icon-checked" viewBox="0 0 367.805 367.805">
<path style="fill:#3BB54A;" d="M183.903,0.001c101.566,0,183.902,82.336,183.902,183.902s-82.336,183.902-183.902,183.902
S0.001,285.469,0.001,183.903l0,0C-0.288,82.625,81.579,0.29,182.856,0.001C183.205,0,183.554,0,183.903,0.001z"/>
<polygon style="fill:#D4E1F4;" points="285.78,133.225 155.168,263.837 82.025,191.217 111.805,161.96 155.168,204.801 
256.001,103.968"/>
</symbol>


<symbol id="icon-group" viewBox="0 0 24 24">
<circle cx="4" cy="10" r="2"/><path d="m6.67 13.4c-1.01.76-1.67 1.98-1.67 3.35v.25h-4.25c-.41 0-.75-.34-.75-.75v-.5c0-1.52 1.23-2.75 2.75-2.75h2.5c.52 0 1.01.15 1.42.4z"/><circle cx="20" cy="10" r="2"/><path d="m24 15.75v.5c0 .41-.34.75-.75.75h-4.25v-.25c0-1.37-.66-2.59-1.67-3.35.41-.25.9-.4 1.42-.4h2.5c1.52 0 2.75 1.23 2.75 2.75z"/><circle cx="12" cy="9.5" r="3"/><path d="m14.75 14h-5.5c-1.517 0-2.75 1.233-2.75 2.75v1.5c0 .414.336.75.75.75h9.5c.414 0 .75-.336.75-.75v-1.5c0-1.517-1.233-2.75-2.75-2.75z"/>
</symbol>


<symbol id="icon-plus" viewBox="0 0 27.021 27.022">
<path d="M17.855,21.223c0-1.902,1.049-3.55,2.588-4.44c-0.963-0.308-2-0.552-3.09-0.722c2.342-1.299,3.929-3.794,3.929-6.663
c0-4.207-3.41-7.617-7.617-7.617s-7.617,3.41-7.617,7.617c0,2.868,1.587,5.364,3.929,6.663C4.223,16.958,0,19.897,0,23.389h18.35
C18.041,22.727,17.855,22,17.855,21.223z"/>
<path d="M23.004,17.206c-2.218,0-4.018,1.797-4.018,4.018c0,2.219,1.8,4.017,4.018,4.017c2.219,0,4.018-1.798,4.018-4.017
C27.02,19.002,25.223,17.206,23.004,17.206z M25.627,21.936h-1.909v1.91h-1.427v-1.91h-1.91v-1.429h1.91v-1.911h1.427v1.911h1.909
V21.936z"/>
</symbol>

<symbol id="icon-savings" viewBox="-29 0 487 487.71902">
<path d="m220.867188 266.175781c-.902344-.195312-1.828126-.230469-2.742188-.09375-9.160156-1.066406-16.070312-8.816406-16.085938-18.035156 0-4.417969-3.582031-8-8-8-4.417968 0-8 3.582031-8 8 .023438 15.394531 10.320313 28.878906 25.164063 32.953125v8c0 4.417969 3.582031 8 8 8s8-3.582031 8-8v-7.515625c17.132813-3.585937 28.777344-19.542969 26.976563-36.953125-1.804688-17.410156-16.472657-30.640625-33.976563-30.644531-10.03125 0-18.164063-8.132813-18.164063-18.164063s8.132813-18.164062 18.164063-18.164062 18.164063 8.132812 18.164063 18.164062c0 4.417969 3.582031 8 8 8 4.417968 0 8-3.582031 8-8-.023438-16.164062-11.347657-30.105468-27.164063-33.441406v-7.28125c0-4.417969-3.582031-8-8-8s-8 3.582031-8 8v7.769531c-16.507813 4.507813-27.132813 20.535157-24.859375 37.496094s16.746094 29.621094 33.859375 29.617187c9.898437 0 17.972656 7.925782 18.152344 17.820313.183593 9.894531-7.597657 18.113281-17.488281 18.472656zm0 0"/>
<path d="m104.195312 222.5c0 64.070312 51.9375 116.007812 116.007813 116.007812s116.007813-51.9375 116.007813-116.007812-51.9375-116.007812-116.007813-116.007812c-64.039063.070312-115.933594 51.96875-116.007813 116.007812zm116.007813-100.007812c55.234375 0 100.007813 44.773437 100.007813 100.007812s-44.773438 100.007812-100.007813 100.007812-100.007813-44.773437-100.007813-100.007812c.0625-55.207031 44.800782-99.945312 100.007813-100.007812zm0 0"/>
<path d="m375.648438 358.230469-62.667969 29.609375c-8.652344-16.09375-25.25-26.335938-43.515625-26.851563l-57.851563-1.589843c-9.160156-.261719-18.148437-2.582032-26.292969-6.789063l-5.886718-3.050781c-30.140625-15.710938-66.066406-15.671875-96.175782.101562l.367188-13.335937c.121094-4.417969-3.359375-8.097657-7.777344-8.21875l-63.4375-1.746094c-4.417968-.121094-8.09375 3.359375-8.214844 7.777344l-3.832031 139.210937c-.121093 4.417969 3.359375 8.097656 7.777344 8.21875l63.4375 1.746094h.21875c4.335937 0 7.882813-3.449219 8-7.78125l.183594-6.660156 16.480469-8.824219c6.46875-3.480469 14.03125-4.308594 21.097656-2.308594l98.414062 27.621094c.171875.050781.34375.089844.519532.128906 7.113281 1.488281 14.363281 2.234375 21.628906 2.230469 15.390625.007812 30.601562-3.308594 44.589844-9.730469.34375-.15625.675781-.339843.992187-.546875l142.691406-92.296875c3.554688-2.300781 4.703125-6.96875 2.621094-10.65625-10.59375-18.796875-34.089844-25.957031-53.367187-16.257812zm-359.070313 107.5625 3.390625-123.21875 47.441406 1.304687-3.390625 123.222656zm258.925781-2.09375c-17.378906 7.84375-36.789062 10.007812-55.46875 6.191406l-98.148437-27.550781c-11.046875-3.121094-22.871094-1.828125-32.976563 3.605468l-8.421875 4.511719 2.253907-81.925781c26.6875-17.75 60.914062-19.574219 89.335937-4.765625l5.886719 3.050781c10.289062 5.3125 21.636718 8.242188 33.210937 8.578125l57.855469 1.589844c16.25.46875 30.050781 12.039063 33.347656 27.960937l-86.175781-2.378906c-4.417969-.121094-8.09375 3.363282-8.21875 7.777344-.121094 4.417969 3.363281 8.097656 7.777344 8.21875l95.101562 2.617188h.222657c4.332031-.003907 7.875-3.453126 7.992187-7.78125.097656-3.476563-.160156-6.957032-.773437-10.378907l64.277343-30.371093c.0625-.027344.125-.058594.1875-.089844 9.117188-4.613282 20.140625-3.070313 27.640625 3.871094zm0 0"/>
<path d="m228.203125 84v-76c0-4.417969-3.582031-8-8-8s-8 3.582031-8 8v76c0 4.417969 3.582031 8 8 8s8-3.582031 8-8zm0 0"/><path d="m288.203125 84v-36c0-4.417969-3.582031-8-8-8s-8 3.582031-8 8v36c0 4.417969 3.582031 8 8 8s8-3.582031 8-8zm0 0"/>
<path d="m168.203125 84v-36c0-4.417969-3.582031-8-8-8s-8 3.582031-8 8v36c0 4.417969 3.582031 8 8 8s8-3.582031 8-8zm0 0"/>
</symbol>


<symbol id="icon-payment" viewBox="0 0 354.796 354.796">
<path d="M265.442,109.092c-10.602-4.25-13.665-6.82-13.665-11.461c0-3.714,2.813-8.053,10.744-8.053
c7.015,0,12.395,2.766,12.443,2.79c0.566,0.302,1.201,0.463,1.83,0.463c1.535,0,2.893-0.929,3.456-2.367l1.927-4.926
c0.671-1.795-0.347-3.359-1.645-3.92c-4.319-1.88-12.76-3.335-12.846-3.35c-0.136-0.024-0.609-0.125-0.609-0.678l-0.027-7.146
c0-2.152-1.797-3.904-4.003-3.904h-3.457c-2.204,0-4,1.751-4,3.905l0.009,7.513c0,0.576-0.624,0.826-0.852,0.879
c-10.655,2.538-17.314,10.343-17.314,20.188c0,12.273,10.145,17.819,21.099,21.982c8.757,3.438,12.329,6.924,12.329,12.037
c0,5.564-5.059,9.45-12.307,9.45c-6.189,0-14.565-3.923-14.648-3.963c-0.536-0.254-1.104-0.382-1.688-0.382
c-1.594,0-2.982,0.964-3.537,2.457l-1.84,4.982c-0.654,1.86,0.353,3.37,1.642,4.042c5.144,2.679,15.098,4.249,15.541,4.318
c0.119,0.017,0.725,0.23,0.725,0.784v7.48c0,2.152,1.797,3.904,4.004,3.904h3.572c2.208,0,4.005-1.751,4.005-3.904v-7.872
c0-0.736,0.543-0.801,0.655-0.828c11.351-2.55,18.343-10.855,18.343-21.283C285.325,121.518,279.377,114.597,265.442,109.092z"
/><path d="M260.979,22.509c-51.816,0-93.818,42.005-93.818,93.818c0,51.814,42.002,93.82,93.818,93.82
c51.814,0,93.817-42.006,93.817-93.82C354.796,64.514,312.793,22.509,260.979,22.509z M260.979,188.404
c-39.808,0-72.076-32.271-72.076-72.076s32.268-72.075,72.076-72.075c39.806,0,72.073,32.27,72.073,72.075
S300.785,188.404,260.979,188.404z"/><path d="M335.733,255.61c-19.95,11.011-47.389,21.192-74.753,25.484c-24.346,3.818-70.148-5.39-70.148-16.265
c0-4.121,40.17,10.154,64.469,3.671c18.633-4.971,15.988-22.401,5.853-24.7c-10.076-2.287-69.108-23.913-94.323-24.659
c-11.878-0.351-41.203,4.131-55.393,6.442c-4.861,0.791-7.909,0.704-8.213,5.356c-1.412,21.62-4.195,65.832-5.712,88.926
c-0.032,0.488,0.646,7.05,6.061,2.432c5.927-5.054,14.24-10.656,21.929-8.912c12.063,2.737,116.424,21.856,130.819,18.51
c20.593-4.787,78.888-39.334,90.065-50.072C363.711,265.176,350.244,247.601,335.733,255.61z"/>
<path d="M74.426,224.74l-54.672-2.694c-4.221-0.208-8.532,2.973-9.581,7.066l-9.941,90.255c-1.048,4.094,1.55,7.578,5.773,7.741
l60.59-0.006c4.224,0.163,7.942-3.151,8.266-7.365l6.654-86.958C81.837,228.566,78.647,224.948,74.426,224.74z M42.24,315.145
c-8.349,0-15.116-6.768-15.116-15.116c0-8.349,6.768-15.116,15.116-15.116s15.116,6.768,15.116,15.116
C57.356,308.378,50.589,315.145,42.24,315.145z"/>
</symbol>

<symbol id="icon-mail" viewBox="0 0 32 32">
<path d="M16 0C7.163 0 0 7.163 0 16s7.163 16 16 16 16-7.163 16-16S24.837 0 16 0zM8 8h16c.286 0 .563.061.817.177L16 18.463 7.183 8.176c.254-.116.531-.177.817-.177zM6 22V10c0-.042.002-.084.004-.125l5.864 6.842-5.8 5.8A1.983 1.983 0 0 1 5.999 22zm18 2H8c-.177 0-.35-.024-.517-.069l5.691-5.691L16 21.537l2.826-3.297 5.691 5.691c-.167.045-.34.069-.517.069zm2-2c0 .177-.024.35-.069.517l-5.8-5.8 5.865-6.842c.003.041.004.083.004.125v12z"></path>
</symbol> 


<symbol id="icon-sendmail" viewBox="0 0 511.92 511.92">
<path d="M505.77,46.551c-4.773-3.978-11.344-5.013-17.109-2.697L56.482,218.293c-4.371,1.767-6.482,6.744-4.715,11.115
s6.744,6.482,11.115,4.715l412.86-166.588l-204.8,241.545c-3.047,3.596-2.602,8.981,0.994,12.028
c3.596,3.047,8.981,2.602,12.028-0.994L491.861,74.899l-27.785,139.469l-27.989,187.025c-0.384,2.617-1.96,4.909-4.267,6.204
c-2.212,1.235-4.877,1.358-7.194,0.333l-116.369-45.756l-55.842-23.381c-4.345-1.823-9.346,0.22-11.17,4.565
c-0.186,0.585-0.307,1.189-0.358,1.801h-0.205l-27.725,107.059l-39.782-138.965l207.36-154.453
c2.65-1.741,4.117-4.807,3.808-7.963c-0.309-3.156-2.342-5.88-5.279-7.074c-2.937-1.194-6.295-0.661-8.718,1.384L161.92,300.324
L11.682,239.507c-4.36-1.729-9.298,0.384-11.057,4.732c-1.759,4.348,0.321,9.3,4.657,11.089l151.04,61.116l40.277,140.612
c2.097,7.263,8.756,12.254,16.316,12.228h0.196c4.121-0.074,8.07-1.663,11.093-4.463c0.298-0.179,0.583-0.379,0.853-0.597
l82.483-84.343l110.592,43.853c7.107,3.019,15.214,2.565,21.939-1.229c6.93-3.844,11.682-10.689,12.86-18.526l27.913-186.675
l30.72-154.121C512.842,56.995,510.616,50.605,505.77,46.551z M236.877,427.786l18.014-69.436l28.211,11.844l7.27,2.884
L236.877,427.786z"/>
</symbol>


<symbol id="icon-shield" viewBox="-38 0 512 512.00142">
<path d="M 217.996094 158.457031 C 164.203125 158.457031 120.441406 202.21875 120.441406 256.007812 C 120.441406 309.800781 164.203125 353.5625 217.996094 353.5625 C 271.785156 353.5625 315.546875 309.800781 315.546875 256.007812 C 315.546875 202.21875 271.785156 158.457031 217.996094 158.457031 Z M 275.914062 237.636719 L 206.027344 307.523438 C 203.09375 310.457031 199.246094 311.925781 195.402344 311.925781 C 191.558594 311.925781 187.714844 310.460938 184.78125 307.523438 L 158.074219 280.816406 C 152.207031 274.953125 152.207031 265.441406 158.074219 259.574219 C 163.9375 253.707031 173.449219 253.707031 179.316406 259.574219 L 195.402344 275.660156 L 254.671875 216.394531 C 260.535156 210.527344 270.046875 210.527344 275.914062 216.394531 C 281.78125 222.257812 281.78125 231.769531 275.914062 237.636719 Z M 275.914062 237.636719 " style=" stroke:none;fill-rule:nonzero;fill:rgb(0%,0%,0%);fill-opacity:1;" />
<path d="M 435.488281 138.917969 L 435.472656 138.519531 C 435.25 133.601562 435.101562 128.398438 435.011719 122.609375 C 434.59375 94.378906 412.152344 71.027344 383.917969 69.449219 C 325.050781 66.164062 279.511719 46.96875 240.601562 9.042969 L 240.269531 8.726562 C 227.578125 -2.910156 208.433594 -2.910156 195.738281 8.726562 L 195.40625 9.042969 C 156.496094 46.96875 110.957031 66.164062 52.089844 69.453125 C 23.859375 71.027344 1.414062 94.378906 0.996094 122.613281 C 0.910156 128.363281 0.757812 133.566406 0.535156 138.519531 L 0.511719 139.445312 C -0.632812 199.472656 -2.054688 274.179688 22.9375 341.988281 C 36.679688 379.277344 57.492188 411.691406 84.792969 438.335938 C 115.886719 468.679688 156.613281 492.769531 205.839844 509.933594 C 207.441406 510.492188 209.105469 510.945312 210.800781 511.285156 C 213.191406 511.761719 215.597656 512 218.003906 512 C 220.410156 512 222.820312 511.761719 225.207031 511.285156 C 226.902344 510.945312 228.578125 510.488281 230.1875 509.925781 C 279.355469 492.730469 320.039062 468.628906 351.105469 438.289062 C 378.394531 411.636719 399.207031 379.214844 412.960938 341.917969 C 438.046875 273.90625 436.628906 199.058594 435.488281 138.917969 Z M 217.996094 383.605469 C 147.636719 383.605469 90.398438 326.367188 90.398438 256.007812 C 90.398438 185.648438 147.636719 128.410156 217.996094 128.410156 C 288.351562 128.410156 345.59375 185.648438 345.59375 256.007812 C 345.59375 326.367188 288.351562 383.605469 217.996094 383.605469 Z M 217.996094 383.605469 " style=" stroke:none;fill-rule:nonzero;fill:rgb(0%,0%,0%);fill-opacity:1;" />
</symbol>

<symbol id="icon-law" viewBox="0 0 64 64">
<path d="m62.707 48.793-11.543-11.543.836-.836.293.293c.195.19.451.293.707.293s.512-.098.707-.293l3-3c.391-.391.391-1.023 0-1.414l-5.707-5.707v-18.586c0-3.86-3.141-7-7-7h-38c-2.757 0-5 2.243-5 5v8c0 .552.447 1 1 1h7v43c0 2.757 2.243 5 5 5h36c2.757 0 5-2.243 5-5v-2c0-.552-.447-1-1-1h-3v-10.086l7.793 7.793c.195.195.451.293.707.293s.512-.098.707-.293l2.5-2.5c.391-.391.391-1.023 0-1.414zm-17.707-8.207-3.586-3.586 5.586-5.586 3.586 3.586zm-.414 2.414-1.586 1.586-5.586-5.586 1.586-1.586zm8.414-8.414-5.586-5.586 1.586-1.586 5.586 5.586zm-44-21.586h-6v-7c0-1.654 1.346-3 3-3s3 1.346 3 3zm44 45c0 1.654-1.346 3-3 3h-32.002c.629-.836 1.002-1.875 1.002-3v-1h34zm-4-3h-31c-.553 0-1 .448-1 1v2c0 1.654-1.346 3-3 3s-3-1.346-3-3v-52c0-1.13-.391-2.162-1.026-3h34.026c2.757 0 5 2.243 5 5v17c-.256 0-.512.098-.707.293l-3 3c-.391.391-.391 1.023 0 1.414l.293.293-5.586 5.586-.293-.293c-.391-.391-1.023-.391-1.414 0l-3 3c-.391.391-.391 1.023 0 1.414l7 7c.195.195.451.293.707.293s.512-.098.707-.293l3-3c.391-.391.391-1.023 0-1.414l-.293-.293.836-.836 1.75 1.75zm10.5-4.414-10.836-10.836 1.086-1.086 10.836 10.836z"/><path d="m14 19h33v2h-33z"/><path d="m14 27h29v2h-29z"/><path d="m14 23h33v2h-33z"/><path d="m14 11h33v2h-33z"/><path d="m14 7h33v2h-33z"/><path d="m14 15h33v2h-33z"/><path d="m14 31h27v2h-27z"/><path d="m22 35c-4.963 0-9 4.038-9 9s4.037 9 9 9 9-4.038 9-9-4.037-9-9-9zm0 16c-3.859 0-7-3.14-7-7s3.141-7 7-7 7 3.14 7 7-3.141 7-7 7z"/><path d="m22 39c-2.757 0-5 2.243-5 5s2.243 5 5 5 5-2.243 5-5-2.243-5-5-5zm0 8c-1.654 0-3-1.346-3-3s1.346-3 3-3 3 1.346 3 3-1.346 3-3 3z"/><path d="m39 49c0-.44-.288-.83-.71-.957-.42-.128-.878.035-1.122.402l-.336.504c-.856 1.284-2.289 2.051-3.832 2.051v2c1.745 0 3.392-.684 4.612-1.875.708 1.125 1.962 1.875 3.388 1.875h4v-2h-4c-1.103 0-2-.897-2-2z"/>
</symbol>


<symbol id="icon-document" viewBox="-24 0 496 496">
<path d="m16 48h240v56c0 4.425781 3.574219 8 8 8h56v64h16v-72c0-2.214844-.902344-4.214844-2.351562-5.664062l-63.976563-63.976563c-1.457031-1.457031-3.457031-2.359375-5.671875-2.359375h-216v-16h304v176h16v-184c0-4.425781-3.574219-8-8-8h-320c-4.425781 0-8 3.574219-8 8v24h-24c-4.425781 0-8 3.574219-8 8v448c0 4.425781 3.574219 8 8 8h272v-16h-264zm256 11.3125 36.6875 36.6875h-36.6875zm0 0"/><path d="m440 240h-12.046875c-35.722656 0-69.320313-15.734375-92.183594-43.167969l-1.617187-1.945312c-3.03125-3.65625-9.265625-3.65625-12.296875 0l-1.617188 1.9375c-22.871093 27.441406-56.46875 43.175781-92.191406 43.175781h-12.046875c-4.425781 0-8 3.574219-8 8v129.566406c0 31.503906 16.992188 60.785156 44.34375 76.410156l71.6875 40.96875c1.226562.703126 2.601562 1.054688 3.96875 1.054688s2.742188-.351562 3.96875-1.054688l71.6875-40.96875c27.351562-15.625 44.34375-44.90625 44.34375-76.410156v-129.566406c0-4.425781-3.574219-8-8-8zm-8 137.566406c0 25.777344-13.894531 49.730469-36.28125 62.511719l-67.71875 38.714844-67.71875-38.703125c-22.386719-12.792969-36.28125-36.746094-36.28125-62.523438v-121.566406h4.046875c38.175781 0 74.226563-15.863281 99.953125-43.769531 25.71875 27.90625 61.777344 43.769531 99.953125 43.769531h4.046875zm0 0"/><path d="m328 264c-48.519531 0-88 39.480469-88 88s39.480469 88 88 88 88-39.480469 88-88-39.480469-88-88-88zm0 160c-39.703125 0-72-32.296875-72-72s32.296875-72 72-72 72 32.296875 72 72-32.296875 72-72 72zm0 0"/><path d="m324.183594 376.871094-14.527344-14.527344-11.3125 11.3125 24 24c1.511719 1.519531 3.558594 2.34375 5.65625 2.34375.648438 0 1.304688-.078125 1.953125-.238281 2.734375-.691407 4.894531-2.769531 5.710937-5.464844l24-80-15.328124-4.59375zm0 0"/><path d="m32 128h208v16h-208zm0 0"/><path d="m32 160h208v16h-208zm0 0"/><path d="m32 192h208v16h-208zm0 0"/><path d="m32 224h160v16h-160zm0 0"/><path d="m32 256h160v16h-160zm0 0"/><path d="m32 288h160v16h-160zm0 0"/><path d="m32 384h160v16h-160zm0 0"/><path d="m32 416h160v16h-160zm0 0"/><path d="m32 448h160v16h-160zm0 0"/><path d="m40 64h16v16h-16zm0 0"/><path d="m72 64h16v16h-16zm0 0"/><path d="m104 64h16v16h-16zm0 0"/><path d="m136 64h104v16h-104zm0 0"/>
</symbol>

<symbol id="icon-field" viewBox="0 0 53 53">
<path d="M53,21.941v17c0,0.276-0.224,0.5-0.5,0.5h-52c-0.276,0-0.5-0.224-0.5-0.5v-16.5
c0-0.276,0.224-0.5,0.5-0.5s0.5,0.224,0.5,0.5v16h51v-16H23c-0.276,0-0.5-0.224-0.5-0.5c0-0.276,0.224-0.5,0.5-0.5h29.5
C52.776,21.441,53,21.665,53,21.941z M15.552,31.586l4.597-4.536c0.144-0.141,0.358-0.182,0.544-0.105
C20.879,27.023,21,27.204,21,27.406v4.535c0,0.276-0.224,0.5-0.5,0.5h-4.597c-0.203,0-0.386-0.123-0.462-0.311
C15.363,31.943,15.407,31.727,15.552,31.586z M17.122,31.441H20v-2.839L17.122,31.441z M2.203,18.655
c-0.094-0.094-0.146-0.221-0.146-0.354s0.053-0.26,0.146-0.354l4.243-4.242c0.195-0.195,0.512-0.195,0.707,0l1.414,1.414
c0.094,0.094,0.146,0.221,0.146,0.354s-0.053,0.26-0.146,0.354l-4.243,4.242c-0.098,0.098-0.226,0.146-0.354,0.146
s-0.256-0.049-0.354-0.146L2.203,18.655z M3.263,18.302l0.707,0.707l3.536-3.535l-0.707-0.707L3.263,18.302z M5.03,20.777
l4.243-4.243c0.188-0.188,0.52-0.188,0.707,0l9.192,9.192c0.195,0.195,0.195,0.512,0,0.707l-4.243,4.243
c-0.098,0.098-0.226,0.146-0.354,0.146s-0.256-0.049-0.354-0.146l-9.192-9.192c-0.094-0.094-0.146-0.221-0.146-0.354
S4.937,20.871,5.03,20.777z M6.091,21.131l8.485,8.485l3.536-3.536l-8.485-8.485L6.091,21.131z"/>
</symbol>


<symbol id="icon-arrowdown" viewBox="0 0 490.688 490.688">
<path style="fill:#FFC107;" d="M472.328,120.529L245.213,347.665L18.098,120.529c-4.237-4.093-10.99-3.975-15.083,0.262
c-3.992,4.134-3.992,10.687,0,14.82l234.667,234.667c4.165,4.164,10.917,4.164,15.083,0l234.667-234.667
c4.237-4.093,4.354-10.845,0.262-15.083c-4.093-4.237-10.845-4.354-15.083-0.262c-0.089,0.086-0.176,0.173-0.262,0.262
L472.328,120.529z"/>
<path d="M245.213,373.415c-2.831,0.005-5.548-1.115-7.552-3.115L2.994,135.633c-4.093-4.237-3.975-10.99,0.262-15.083
c4.134-3.992,10.687-3.992,14.82,0l227.136,227.115l227.115-227.136c4.093-4.237,10.845-4.354,15.083-0.262
c4.237,4.093,4.354,10.845,0.262,15.083c-0.086,0.089-0.173,0.176-0.262,0.262L252.744,370.279
C250.748,372.281,248.039,373.408,245.213,373.415z"/>
</symbol>

<symbol id="icon-arrowdown-double" viewBox="0 0 192.701 192.701">
<path d="M171.955,88.526l-75.61,74.528l-75.61-74.54c-4.74-4.704-12.439-4.704-17.179,0c-4.74,4.704-4.74,12.319,0,17.011
l84.2,82.997c4.559,4.511,12.608,4.535,17.191,0l84.2-83.009c4.74-4.692,4.74-12.319,0-17.011
C184.394,83.823,176.695,83.823,171.955,88.526z"/>
<path d="M87.755,104.322c4.559,4.511,12.608,4.535,17.191,0l84.2-82.997c4.74-4.704,4.74-12.319,0-17.011
c-4.74-4.704-12.439-4.704-17.179,0L96.345,78.842L20.734,4.314c-4.74-4.704-12.439-4.704-17.179,0
c-4.74,4.704-4.74,12.319,0,17.011L87.755,104.322z"/>
</symbol>

<symbol id="icon-form" viewBox="0 0 512 512">
<path d="m46.443 0v512h419.113v-512zm389.114 482h-359.114v-452h89.89v70.333h179.334v-70.333h89.89zm-119.89-452v40.333h-119.334v-40.333z"/>
<path d="m194.832 155.667h183.835v30h-183.835z"/>
<path d="m133.333 155.667h31.499v30h-31.499z"/>
<path d="m194.832 219.667h183.835v30h-183.835z"/>
<path d="m133.333 219.667h31.499v30h-31.499z"/>
<path d="m133.333 283.667h31.499v30h-31.499z"/>
<path d="m194.832 283.667h183.835v30h-183.835z"/>
<path d="m133.333 379.667h80v30h-80z"/>
<path d="m298.667 394.787-21.394-21.393-21.213 21.212 42.607 42.607 63.939-63.94-21.212-21.213z"/>
</symbol>


<symbol id="icon-contacts" viewBox="0 0 511.874 511.874">
<path d="M490.114,12.813H132.568c-12.012,0.014-21.746,9.748-21.76,21.76v98.62l-16.35-24.525
c-7.484-11.289-22.535-14.676-34.133-7.68l-33.638,20.224c-11.016,6.464-19.097,16.946-22.545,29.244
c-12.271,44.681-3.166,121.66,109.824,234.667C203.821,474.885,270.816,499.06,316.99,499.06
c10.69,0.049,21.339-1.34,31.659-4.13c12.293-3.448,22.775-11.518,29.252-22.519l20.198-33.673
c6.968-11.589,3.584-26.609-7.68-34.091l-80.546-53.692c-11.049-7.308-25.859-4.905-34.031,5.521l-23.45,30.148
c-2.451,3.226-6.897,4.166-10.445,2.21l-4.463-2.458c-14.686-8.004-32.964-17.971-69.879-54.886
c-3.994-3.994-7.612-7.731-11.008-11.307h333.517c11.982,0.009,21.713-9.676,21.76-21.658V34.573
C511.86,22.561,502.126,12.827,490.114,12.813z M229.318,401.362l4.335,2.381c10.897,6.093,24.614,3.266,32.213-6.639
l23.45-30.148c2.666-3.396,7.49-4.179,11.093-1.801l80.546,53.692c3.659,2.439,4.759,7.321,2.5,11.093l-20.198,33.673
c-4.218,7.233-11.071,12.553-19.123,14.848c-40.337,11.093-110.933,1.707-218.078-105.446S9.56,195.273,20.627,154.97
c2.293-8.051,7.61-14.903,14.839-19.123l33.673-20.207c3.773-2.254,8.652-1.155,11.093,2.5l53.717,80.546
c2.382,3.602,1.599,8.43-1.801,11.093l-30.157,23.458c-9.903,7.597-12.731,21.311-6.639,32.205l2.389,4.335
c8.533,15.65,19.14,35.123,57.805,73.779C194.212,382.213,213.677,392.828,229.318,401.362z M494.808,298.526
c-0.028,2.567-2.127,4.627-4.693,4.608H141.203c-11.083-12.674-20.64-26.604-28.476-41.506l-2.458-4.48
c-1.96-3.54-1.022-7.982,2.202-10.428l30.157-23.458c10.43-8.17,12.833-22.982,5.521-34.031l-20.275-30.43V34.573
c-0.014-1.249,0.476-2.451,1.359-3.334c0.883-0.883,2.085-1.373,3.334-1.359h357.547c1.249-0.014,2.451,0.476,3.334,1.359
c0.883,0.883,1.373,2.085,1.359,3.334V298.526z"/>
<path d="M460.725,52.323l-142.618,108.16c-4.035,2.932-9.499,2.932-13.534,0L162.008,52.323
c-3.756-2.849-9.111-2.113-11.959,1.643c-2.849,3.756-2.113,9.111,1.643,11.959l142.583,108.151
c10.144,7.494,23.989,7.494,34.133,0L471.034,65.925c1.805-1.368,2.992-3.398,3.299-5.642c0.307-2.244-0.29-4.518-1.661-6.321
C469.824,50.213,464.478,49.48,460.725,52.323z"/>
<path d="M238.517,174.793l-87.415,93.611c-3.214,3.447-3.025,8.848,0.422,12.062c3.447,3.214,8.848,3.025,12.062-0.422
l87.416-93.653c2.888-3.484,2.553-8.617-0.762-11.698C246.924,171.612,241.78,171.656,238.517,174.793z"/>
<path d="M384.728,174.793c-3.214-3.447-8.614-3.637-12.062-0.422c-3.447,3.214-3.637,8.614-0.422,12.062l87.39,93.611
c3.214,3.447,8.614,3.637,12.062,0.422c3.447-3.214,3.637-8.614,0.422-12.062L384.728,174.793z"/>
</symbol>


<symbol id="icon-handshake" viewBox="0 0 512 512">
<path d="M123.733,130.133c-17.067-17.067-89.6-21.333-113.067-23.467c-2.133,0-4.267,0-6.4,2.133C2.133,110.933,0,115.2,0,117.333
v192C0,315.733,4.267,320,10.667,320h64c4.267,0,8.533-2.133,10.667-6.4c0-6.4,38.4-119.467,42.667-174.933
C128,136.533,128,132.267,123.733,130.133z"/>
<path d="M352,181.333c-21.333-6.4-40.533-14.933-57.6-21.333c-38.4-17.067-55.467-8.533-89.6,25.6
c-14.933,14.933-25.6,36.267-23.467,44.8c0,2.133,0,2.133,4.267,4.267c10.667,4.267,25.6,6.4,40.533-17.067
c2.133-2.133,4.267-4.267,8.533-4.267c6.4,0,8.533-2.133,14.933-4.267c4.267-2.133,8.533-4.267,14.933-6.4
c2.133,0,2.133,0,4.267,0c2.133,0,6.4,2.133,8.533,2.133C288,215.467,307.2,230.4,326.4,247.467
c29.867,23.467,59.733,49.067,74.667,68.267h2.133C388.267,273.067,362.667,200.533,352,181.333z"/>
<path d="M501.333,128c-83.2,0-130.133,21.333-132.267,21.333c-2.133,2.133-4.267,4.267-6.4,6.4c0,2.133,0,6.4,2.133,8.533
c12.8,21.333,55.467,138.667,61.867,168.533c2.133,4.267,6.4,8.533,10.667,8.533h64c6.4,0,10.667-4.267,10.667-10.667v-192
C512,132.267,507.733,128,501.333,128z"/>
<path d="M386.133,337.067c-8.533-19.2-44.8-46.933-76.8-72.533C292.267,249.6,275.2,236.8,262.4,226.133
c-2.133,2.133-6.4,2.133-6.4,4.267c-6.4,2.133-8.533,4.267-17.067,4.267C221.867,256,200.533,264.533,177.067,256
c-10.667-2.133-17.067-10.667-19.2-19.2c-4.267-21.333,14.933-51.2,29.867-66.133h-42.667c-8.533,42.667-23.467,98.133-34.133,128
c8.533,8.533,17.067,19.2,23.467,23.467c40.533,34.133,87.467,68.267,96,74.667c6.4,4.267,19.2,8.533,25.6,8.533
c2.133,0,4.267,0,6.4,0L228.267,371.2c-4.267-4.267-4.267-10.667,0-14.933s10.667-4.267,14.933,0l42.667,42.667
c4.267,4.267,8.533,2.133,12.8,2.133c6.4-2.133,8.533-6.4,10.667-12.8L260.267,339.2c-4.267-4.267-4.267-10.667,0-14.933
s10.667-4.267,14.933,0l53.333,53.333c2.133,2.133,10.667,2.133,17.067,0c2.133-2.133,6.4-4.267,8.533-8.533L294.4,309.333
c-4.267-4.267-4.267-10.667,0-14.933s10.667-4.267,14.933,0l61.867,61.867c4.267,2.133,8.533,0,12.8-2.133
C386.133,352,390.4,345.6,386.133,337.067z"/>
</symbol>

<symbol id="icon-businessman" viewBox="0 0 81.016 81.016" xmlns="http://www.w3.org/2000/svg">
<circle cx="40.509" cy="17.217" r="17.217"/><path d="m47.811 35.606h-14.608c-12.152 0-22.041 9.888-22.041 22.042v17.869l0.045 0.279 1.232 0.385c11.598 3.623 21.676 4.834 29.971 4.834 16.199 0 25.59-4.621 26.172-4.914l1.15-0.584h0.121v-17.869c1e-3 -12.154-9.886-22.042-22.042-22.042zm-3.901 34.677l-3.152 4.613c-0.043 0.063-0.111 0.1-0.186 0.1h-6e-3c-0.074 0-0.145-0.039-0.186-0.104l-2.928-4.616c-0.025-0.039-0.037-0.086-0.035-0.136l1.465-22.403c8e-3 -0.119 0.105-0.209 0.225-0.209h3.039c0.119 0 0.217 0.09 0.227 0.209l1.574 22.401c6e-3 0.053-9e-3 0.102-0.037 0.145zm-1.426-23.433h-3.613l-3.141-6.492c0-0.623 0.504-1.125 1.127-1.125h7.543c0.621 0 1.125 0.502 1.125 1.125l-3.041 6.492z"/>
</symbol>


<symbol id="icon-location_circled" viewBox="0 0 299.997 299.997">
<circle cx="150.437" cy="110.572" r="24.149"/>
<path d="M149.996,0C67.157,0,0.001,67.158,0.001,149.997c0,82.837,67.156,150,149.995,150s150-67.163,150-150
C299.996,67.158,232.835,0,149.996,0z M149.685,68.678c0.106,0,0.21-0.005,0.314-0.01c0.104,0.005,0.207,0.01,0.314,0.01
c25.274,0.399,45.834,21.288,45.834,46.568c0,30.908-33.024,62.205-46.148,73.419c-0.877-0.75-1.849-1.595-2.889-2.521
c-0.018-0.016-0.034-0.029-0.049-0.044c-14.524-12.906-43.209-42.045-43.209-70.854
C103.851,89.966,124.413,69.078,149.685,68.678z M150.65,232.25c-27.663,0-55.669-7.936-55.669-23.098
c0-10.641,13.79-17.717,31.569-20.995c3.439,3.457,6.694,6.505,9.55,9.049c-19.366,2.163-30.744,8.294-30.744,11.943
c0,4.484,17.195,12.724,45.294,12.724c28.099,0,45.297-8.24,45.297-12.724c0-3.724-11.858-10.009-31.927-12.052
c2.881-2.573,6.162-5.649,9.627-9.142c18.313,3.188,32.674,10.335,32.674,21.197C206.321,224.314,178.315,232.25,150.65,232.25z"/>
</symbol>

<symbol id="icon-phone_circled" viewBox="0 0 300 300">
<circle cx="150.001" cy="226.085" r="11.718"/>
<path d="M182.691,68.248h-65.382c-3.665,0-6.647,2.843-6.647,6.331v123.592c0,3.491,2.98,6.331,6.647,6.331h65.382
c3.665,0,6.647-2.843,6.647-6.331V74.579C189.336,71.088,186.356,68.248,182.691,68.248z"/>
<path d="M149.996,0C67.157,0,0.001,67.161,0.001,149.997S67.157,300,149.996,300s150.003-67.163,150.003-150.003
S232.835,0,149.996,0z M208.354,224.021c0,11.458-9.29,20.749-20.749,20.749h-75.214c-11.458,0-20.749-9.29-20.749-20.749V75.323
c0-11.458,9.29-20.749,20.749-20.749h75.214c11.458,0,20.749,9.29,20.749,20.749V224.021z"/>
</symbol>


<symbol id="icon-food-menu" viewBox="0 0 512 512">
<path d="m481 512c8.284 0 15-6.716 15-15v-91c0-8.284-6.716-15-15-15h-75v45c0 41.422 33.578 76 75 76z"/><ellipse cx="256" cy="166" rx="30" ry="45"/><path d="m121 512h286.749c-19.532-19.08-31.749-46.608-31.749-76v-421c0-8.284-6.716-15-15-15h-330c-8.284 0-15 6.716-15 15v391c0 57.99 47.01 106 105 106zm135-421c33.091 0 60 33.647 60 75 0 34.841-19.193 63.953-45 72.338v107.662c0 8.291-6.709 15-15 15s-15-6.709-15-15v-107.662c-25.807-8.384-45-37.496-45-72.338 0-41.353 26.909-75 60-75zm-165 15c0-5.2 2.695-10.02 7.119-12.759 4.409-2.739 9.932-2.959 14.59-.659 42.129 21.064 68.291 63.398 68.291 110.493v22.925c0 24.814-20.186 45-45 45h-15v75c0 8.291-6.709 15-15 15s-15-6.709-15-15zm15 285h180c8.291 0 15 6.709 15 15s-6.709 15-15 15h-180c-8.291 0-15-6.709-15-15s6.709-15 15-15z"/><path d="m151 226v-22.925c0-26.66-11.074-51.313-30-68.716v106.641h15c8.276 0 15-6.724 15-15z"/>
</symbol>

<symbol id="icon-cart" viewBox="0 0 512 512">
<path style="fill-rule:evenodd;clip-rule:evenodd;" d="M93.459,105.444l76.858,11.215l25.561,90.071l-90.643-2.172l-30.312-74.62  L55.675,116c-7.43,3.98-16.215,5.526-25.094,3.781c-20.448-4.02-33.891-23.984-29.87-44.439c4.02-20.448,23.985-33.892,44.439-29.87  c20.448,4.021,33.892,23.985,29.869,44.439c-0.124,0.633-0.264,1.258-0.419,1.877L93.459,105.444L93.459,105.444z M391.114,411.671  c19.533,0,35.368,15.835,35.368,35.368c0,19.533-15.835,35.368-35.368,35.368c-19.533,0-35.368-15.835-35.368-35.368  C355.746,427.506,371.581,411.671,391.114,411.671L391.114,411.671z M208.693,411.671c19.533,0,35.368,15.835,35.368,35.368  c0,19.533-15.835,35.368-35.368,35.368c-19.533,0-35.368-15.835-35.368-35.368C173.326,427.506,189.16,411.671,208.693,411.671  L208.693,411.671z M403.65,246.252c-59.825,0-108.329-48.504-108.329-108.329c0-59.825,48.504-108.329,108.329-108.329  c29.725,0,57.255,12.171,76.625,31.757l-80.225,80.225l-19.882-19.882c-6.005-6.005-15.74-6.005-21.745,0  c-6.005,6.005-6.005,15.74,0,21.745l30.754,30.754c6.005,6.005,15.74,6.005,21.745,0l87.954-87.954  c22.976,42.24,15.174,94.483-18.627,128.284C460.645,234.126,433.563,246.252,403.65,246.252L403.65,246.252z M183.753,341.771  l48.643-6.364l-27.759-97.815l-86.828-2.081l36.474,89.787c-2.652,3.034-4.91,6.487-6.719,10.316  c-13.776,29.163,7.834,62.247,39.894,62.247h240.971c8.493,0,15.377-6.885,15.377-15.377c0-8.493-6.885-15.377-15.377-15.377  H187.457c-4.916,0-8.852-2.102-11.439-6.224C171.207,353.218,175.696,343.654,183.753,341.771L183.753,341.771z M203.6,121.516  l61.17,8.926c-1.506,27.761,5.447,54.937,19.309,78.401l-56.077-1.344L203.6,121.516L203.6,121.516z M431.762,274.108  c-17.876,21.357-42.5,37.072-71.16,43.823l-8.392-50.865C377.399,277.133,404.94,279.697,431.762,274.108L431.762,274.108z   M330.285,322.598l-12.41-75.223c-2.965-2.314-5.825-4.742-8.575-7.276l-72.54-1.738l26.399,93.02L330.285,322.598z"/>
</symbol>


<symbol id="icon-shopper" viewBox="0 0 511.953 511.953">
<path style="fill-rule:evenodd;clip-rule:evenodd;" d="M511.714,476.59l-4.638-42.339H340.888l5.535,38.672   c0.982,6.885,0.151,14.794-2.134,21.328H496.95C506.34,494.251,513.353,485.752,511.714,476.59z"/>
<path style="fill-rule:evenodd;clip-rule:evenodd;" d="M474.375,135.669c-0.644-6.056-6.82-13.418-14.883-13.418h-65.414v55.534   c0,8.284-6.716,15-15,15c-8.284,0-15-6.716-15-15v-55.534H246.822v55.534c0,8.284-6.716,15-15,15c-8.284,0-15-6.716-15-15v-55.534   h-65.453c-8.071,0-14.653,6.375-14.986,14.365c-2.712,24.92-5.439,49.845-8.171,74.769l141.823-0.133   c11.693,0,22.383,4.523,30.428,11.929c7.944,7.312,13.254,17.459,14.346,28.854l21.784,152.216H503.79   C493.983,314.724,484.177,225.197,474.375,135.669z"/>
<path style="fill-rule:evenodd;clip-rule:evenodd;" d="M246.822,106.329c0-32.215,26.412-58.627,58.627-58.627   c32.214,0,58.628,26.414,58.628,58.627v15.923h30v-15.923c0-48.773-39.852-88.627-88.628-88.627   c-48.776,0-88.627,39.851-88.627,88.627v15.923h30V106.329z"/>
<path style="fill-rule:evenodd;clip-rule:evenodd;" d="M284.984,255.012c-0.63-7.704-7.082-13.76-14.949-13.76l-223.2,0.026   c-7.342-0.009-13.76,5.387-14.824,12.865L0.26,476.203c-1.739,9.973,5.485,18.048,14.69,18.048l287-0.026   c9.081-0.011,16.111-8.034,14.824-17.083L284.984,255.012z M158.45,367.68c-39.631,0-72.001-32.369-72.001-72.001   c0-8.284,6.716-15,15-15c8.284,0,15,6.716,15,15c0,23.07,18.931,42.001,42.001,42.001c23.07,0,42.001-18.931,42.001-42.001   c0-8.284,6.716-15,15-15c8.284,0,15,6.716,15,15C230.451,335.31,198.081,367.68,158.45,367.68z"/>
</symbol>

<symbol id="icon-www" viewBox="0 0 496 496">
<path d="m8 167.988281h480c4.417969 0 8-3.582031 8-8s-3.582031-8-8-8h-11.488281c-37.5625-90.507812-125.222657-150.125-223.199219-151.800781h-.296875c-.496094-.054688-.996094-.078125-1.496094-.070312-2.0625-.1562505-4.128906-.1562505-6.191406 0-.75-.0195318-1.496094.015624-2.238281.101562h-.105469c-.097656 0-.183594 0-.28125 0-97.976563 1.664062-185.640625 61.269531-223.214844 151.769531h-11.488281c-4.417969 0-8 3.582031-8 8s3.582031 8 8 8zm309.023438-91.824219c-20.261719 2.289063-40.632813 3.542969-61.023438 3.753907v-63.066407c22.65625 4.136719 44.152344 25.710938 61.023438 59.3125zm-77.023438-59.3125v63.066407c-20.382812-.210938-40.738281-1.464844-60.992188-3.753907 16.792969-33.34375 38.207032-54.871093 60.992188-59.3125zm0 79.066407v56.070312h-86.398438c4.171876-20.730469 10.300782-41.019531 18.300782-60.59375 22.597656 2.78125 45.332031 4.292969 68.097656 4.523438zm16 0c22.761719-.230469 45.488281-1.742188 68.078125-4.53125 8 19.582031 14.136719 39.871093 18.320313 60.601562h-86.398438zm84.335938-6.851563c11.046874-1.78125 21.464843-3.878906 31.097656-6.277344 15.84375 20.941407 28.191406 44.308594 36.566406 69.199219h-49.320312c-4.167969-21.492187-10.308594-42.554687-18.34375-62.921875zm-6.59375-15.109375c-7.621094-16.742187-17.722657-32.238281-29.964844-45.96875 21.386718 9.652344 40.535156 23.652344 56.222656 41.105469-8.238281 1.839844-17.015625 3.46875-26.257812 4.863281zm-171.46875 0c-9.261719-1.394531-18.015626-3.015625-26.273438-4.863281 15.710938-17.488281 34.890625-31.511719 56.320312-41.175781-12.289062 13.738281-22.417968 29.261719-30.046874 46.039062zm-6.609376 15.109375c-8.03125 20.367188-14.171874 41.429688-18.34375 62.921875h-49.320312c8.378906-24.890625 20.734375-48.261719 36.585938-69.199219 9.613281 2.398438 20.03125 4.503907 31.078124 6.277344zm303.390626 62.921875h-34.191407c-8.335937-26.398437-20.773437-51.320312-36.863281-73.847656 4.640625-1.472656 9.011719-3.023437 13.113281-4.65625 24.675781 21.75 44.429688 48.515625 57.941407 78.503906zm-72.4375-90.207031c-2.949219 1-6.027344 1.96875-9.234376 2.902344-6.867187-8.136719-14.355468-15.730469-22.398437-22.710938 11.066406 5.730469 21.644531 12.355469 31.632813 19.808594zm-268 2.902344c-3.203126-.933594-6.277344-1.902344-9.234376-2.902344 10.007813-7.453125 20.601563-14.082031 31.679688-19.816406-8.054688 6.984375-15.558594 14.578125-22.445312 22.71875zm-23.695313 8.800781c4.09375 1.632813 8.464844 3.183594 13.109375 4.65625-16.097656 22.527344-28.550781 47.449219-36.894531 73.847656h-34.191407c13.523438-29.992187 33.289063-56.753906 57.976563-78.503906zm0 0"/><path d="m488 327.988281h-480c-4.417969 0-8 3.582031-8 8s3.582031 8 8 8h11.488281c37.5625 90.507813 125.222657 150.125 223.199219 151.800781h.296875c.496094.058594.996094.082032 1.496094.070313h.800781.472656c.796875.050781 1.542969.058594 2.285156.058594 1.015626 0 1.945313 0 2.546876-.058594.800781.03125 1.601562-.007813 2.398437-.109375h.078125.28125c97.957031-1.683594 185.597656-61.28125 223.167969-151.761719h11.488281c4.417969 0 8-3.582031 8-8s-3.582031-8-8-8zm-309.023438 91.824219c20.261719-2.289062 40.632813-3.542969 61.023438-3.753906v63.066406c-22.65625-4.136719-44.152344-25.710938-61.023438-59.3125zm77.023438 59.3125v-63.066406c20.382812.210937 40.738281 1.464844 60.992188 3.753906-16.792969 33.34375-38.214844 54.871094-60.992188 59.3125zm0-79.066406v-56.070313h86.398438c-4.171876 20.730469-10.300782 41.019531-18.300782 60.59375-22.597656-2.78125-45.332031-4.292969-68.097656-4.523437zm-16 0c-22.761719.230468-45.488281 1.742187-68.078125 4.53125-8-19.582032-14.136719-39.871094-18.320313-60.601563h86.398438zm-84.335938 6.851562c-11.046874 1.78125-21.464843 3.878906-31.097656 6.277344-15.84375-20.941406-28.191406-44.308594-36.566406-69.199219h49.335938c4.164062 21.492188 10.296874 42.554688 18.328124 62.921875zm6.59375 15.109375c7.617188 16.753907 17.722657 32.261719 29.964844 46-21.390625-9.660156-40.539062-23.667969-56.222656-41.136719 8.238281-1.839843 17.015625-3.46875 26.257812-4.863281zm171.46875 0c9.253907 1.394531 18.015626 3.015625 26.28125 4.863281-15.710937 17.488282-34.890624 31.515626-56.320312 41.183594 12.28125-13.742187 22.410156-29.265625 30.039062-46.046875zm6.609376-15.109375c8.03125-20.367187 14.171874-41.429687 18.34375-62.921875h49.320312c-8.378906 24.890625-20.734375 48.261719-36.585938 69.199219-9.613281-2.398438-20.03125-4.503906-31.078124-6.277344zm-303.390626-62.921875h34.191407c8.335937 26.398438 20.773437 51.320313 36.863281 73.847657-4.640625 1.472656-9.011719 3.023437-13.113281 4.65625-24.675781-21.75-44.429688-48.515626-57.941407-78.503907zm72.4375 90.207031c2.949219-.996093 6.027344-1.964843 9.234376-2.902343 6.882812 8.136719 14.382812 15.730469 22.4375 22.710937-11.078126-5.730468-21.667969-12.355468-31.671876-19.808594zm268-2.902343c3.203126.9375 6.277344 1.90625 9.234376 2.902343-10.007813 7.453126-20.601563 14.082032-31.679688 19.816407 8.054688-6.984375 15.558594-14.578125 22.445312-22.71875zm23.695313-8.800781c-4.09375-1.632813-8.464844-3.183594-13.109375-4.65625 16.097656-22.527344 28.550781-47.449219 36.894531-73.847657h34.191407c-13.523438 29.992188-33.289063 56.753907-57.976563 78.503907zm0 0"/><path d="m288.335938 205.691406-18.199219 60.695313-14.9375-29.972657c-1.503907-2.523437-4.222657-4.070312-7.160157-4.070312-2.933593 0-5.65625 1.546875-7.160156 4.070312l-15.015625 29.972657-18.199219-60.671875c-1.269531-4.230469-5.726562-6.632813-9.960937-5.367188-4.230469 1.269532-6.636719 5.726563-5.367187 9.960938l24 80c.941406 3.140625 3.707031 5.390625 6.976562 5.671875 3.277344.316406 6.402344-1.433594 7.847656-4.390625l16.839844-33.714844 16.800781 33.6875c1.359375 2.726562 4.152344 4.441406 7.199219 4.425781.230469.011719.457031.011719.6875 0 3.269531-.28125 6.035156-2.53125 6.976562-5.671875l24-80c1.269532-4.234375-1.136718-8.691406-5.367187-9.960937-4.234375-1.265625-8.691406 1.136719-9.960937 5.367187zm0 0"/><path d="m416.335938 205.691406-18.199219 60.695313-14.9375-29.972657c-1.503907-2.523437-4.222657-4.070312-7.160157-4.070312-2.933593 0-5.65625 1.546875-7.160156 4.070312l-15.015625 29.972657-18.199219-60.671875c-1.269531-4.230469-5.726562-6.632813-9.960937-5.367188-4.230469 1.269532-6.636719 5.726563-5.367187 9.960938l24 80c.941406 3.140625 3.707031 5.390625 6.976562 5.671875 3.273438.3125 6.402344-1.4375 7.847656-4.390625l16.839844-33.714844 16.800781 33.6875c1.359375 2.726562 4.152344 4.441406 7.199219 4.425781.230469.011719.457031.011719.6875 0 3.269531-.28125 6.035156-2.53125 6.976562-5.671875l24-80c1.269532-4.234375-1.136718-8.691406-5.367187-9.960937-4.234375-1.265625-8.691406 1.136719-9.960937 5.367187zm0 0"/><path d="m160.335938 205.691406-18.199219 60.695313-14.9375-29.972657c-1.503907-2.523437-4.222657-4.070312-7.160157-4.070312-2.933593 0-5.65625 1.546875-7.160156 4.070312l-15.015625 29.972657-18.199219-60.671875c-1.269531-4.230469-5.726562-6.632813-9.960937-5.367188-4.230469 1.269532-6.636719 5.726563-5.367187 9.960938l24 80c.941406 3.140625 3.707031 5.390625 6.976562 5.671875 3.277344.320312 6.40625-1.433594 7.847656-4.390625l16.839844-33.714844 16.839844 33.6875c1.355468 2.714844 4.128906 4.425781 7.160156 4.425781.230469.011719.457031.011719.6875 0 3.269531-.28125 6.035156-2.53125 6.976562-5.671875l24-80c1.269532-4.234375-1.136718-8.691406-5.367187-9.960937-4.234375-1.265625-8.691406 1.136719-9.960937 5.367187zm0 0"/>
</symbol>

<symbol id="icon-at" viewBox="0 0 512 512">
<path d="M371.496,485.52C327.36,505.384,289.104,512,236.872,512C114.76,512,7.352,424.456,7.352,280.28
C7.352,130.208,116.224,0,282.488,0c129.472,0,222.16,89.016,222.16,212.6c0,107.4-60.32,175.08-139.768,175.08
c-34.576,0-59.584-17.656-63.264-56.648h-1.472c-22.8,37.52-55.904,56.648-94.896,56.648c-47.816,0-82.392-35.312-82.392-95.64
c0-89.744,66.208-171.4,172.136-171.4c32.368,0,69.144,8.096,87.544,18.392l-22.064,136.096
c-7.352,43.392-2.208,63.264,18.392,63.992c31.632,0.736,71.352-39.728,71.352-124.32c0-95.632-61.792-169.936-175.824-169.936
c-112.544,0-211.128,88.28-211.128,228.784c0,122.848,78.712,192.736,188.328,192.736c37.52,0,77.248-8.088,106.664-23.544
L371.496,485.52z M306.024,181.704c-5.888-1.472-13.248-2.944-22.808-2.944c-48.544,0-86.808,47.816-86.808,104.456
c0,27.952,12.512,45.608,36.784,45.608c27.216,0,55.912-34.576,62.528-77.24L306.024,181.704z"/>
</symbol>

<symbol id="icon-mail-at" viewBox="0 0 452.84 452.84">
<path d="m449.483,190.4l.001-.001-57.824-38.335v-128.134c0-4.142-3.358-7.5-7.5-7.5h-315.49c-4.142,0-7.5,3.358-7.5,7.5v128.143l-57.814,38.326 .001,.002c-2.022,1.343-3.357,3.639-3.357,6.249v232.26c0,4.142 3.358,7.5 7.5,7.5h437.84c4.142,0 7.5-3.358 7.5-7.5v-232.26c0-2.61-1.335-4.906-3.357-6.25zm-388.313,26.229l-23.525-12.479h23.525v12.479zm-46.17-7.511l172.475,91.49-172.475,114.327v-205.817zm211.417,83.671l194.037,128.621h-388.073l194.036-128.621zm38.945,7.82l172.477-91.491v205.821l-172.477-114.33zm126.298-96.459h23.536l-23.536,12.484v-12.484zm28.794-15h-28.794v-19.09l28.794,19.09zm-43.794-157.72v193.161l-125.527,66.586-20.573-13.637c-2.511-1.665-5.776-1.665-8.287,0l-20.57,13.635-125.533-66.589v-193.156h300.49zm-315.49,157.72h-28.782l28.782-19.08v19.08z"/>
<path d="m226.415,213.671h59.754c4.142,0 7.5-3.358 7.5-7.5s-3.358-7.5-7.5-7.5h-59.754c-28.813,0-52.254-23.441-52.254-52.254v-2.213c0-28.813 23.441-52.254 52.254-52.254s52.254,23.441 52.254,52.254v5.533c0,6.237-5.074,11.312-11.312,11.312s-11.312-5.074-11.312-11.312v-10.512c0-17.864-14.533-32.398-32.397-32.398s-32.397,14.533-32.397,32.398c0,17.864 14.533,32.397 32.397,32.397 8.169,0 15.636-3.045 21.34-8.052 4.644,7.483 12.932,12.478 22.369,12.478 14.508,0 26.312-11.803 26.312-26.312v-5.533c0-37.084-30.17-67.254-67.254-67.254s-67.254,30.17-67.254,67.254v2.213c5.68434e-14,37.085 30.17,67.255 67.254,67.255zm-2.767-57.049c-9.593,0-17.397-7.804-17.397-17.397s7.805-17.398 17.397-17.398 17.397,7.805 17.397,17.398-7.804,17.397-17.397,17.397z"/>
</symbol>

<symbol id="icon-hours" viewBox="0 0 299.995 299.995">
<path d="M149.995,0C67.156,0,0,67.158,0,149.995s67.156,150,149.995,150s150-67.163,150-150S232.834,0,149.995,0z
M214.842,178.524H151.25c-0.215,0-0.415-0.052-0.628-0.06c-0.213,0.01-0.412,0.06-0.628,0.06
c-5.729,0-10.374-4.645-10.374-10.374V62.249c0-5.729,4.645-10.374,10.374-10.374s10.374,4.645,10.374,10.374v95.527h54.47
c5.729,0,10.374,4.645,10.374,10.374C225.212,173.879,220.571,178.524,214.842,178.524z"/>
</symbol>


<symbol id="icon-clicker" viewBox="0 0 512.051 512.051">
<path d="m.013 368.685c.264 6.235 4.361 11.655 10.288 13.61l89.822 29.632 29.632 89.822c1.955 5.927 7.375 10.023 13.61 10.288 6.338.261 12.019-3.446 14.432-9.1l96-225c5.293-12.407-7.277-24.975-19.684-19.684l-225 96c-5.739 2.45-9.363 8.197-9.1 14.432zm57.42-2.431 154.122-65.759-65.759 154.122-19.552-59.266c-1.489-4.515-5.031-8.056-9.545-9.545z"/><path d="m256 385.05c71.131 0 129-57.869 129-129s-57.869-129-129-129-129 57.869-129 129c0 8.284-6.716 15-15 15s-15-6.716-15-15c0-87.673 71.327-159 159-159s159 71.327 159 159-71.327 159-159 159c-8.284 0-15-6.716-15-15s6.716-15 15-15z"/><path d="m256 482.05c124.617 0 226-101.383 226-226s-101.383-226-226-226-226 101.383-226 226c0 8.284-6.716 15-15 15s-15-6.716-15-15c0-68.113 26.702-132.327 75.188-180.812 100.3-100.301 261.29-100.335 361.624 0 100.301 100.3 100.335 261.29 0 361.624-48.485 48.486-112.699 75.188-180.812 75.188-8.284 0-15-6.716-15-15s6.716-15 15-15z"/>
</symbol>



<symbol id="icon-chilli" viewBox="0 0 453.064 453.064">
<polygon style="fill:#C7B299;" points="41.908,444.142 41.908,434.542 41.908,434.542 "/>
<path style="fill:#84D10F;" d="M373.108,179.342c-4.8-7.2-11.2-13.6-17.6-18.4h-0.8c-10.4,3.2-20.8,8.8-29.6,15.2l-4.8,4l-5.6-4
c-9.6-7.2-21.6-12-33.6-13.6l-9.6-1.6l3.2-8.8c3.2-9.6,8.8-17.6,15.2-24.8c27.2-27.2,70.4-28,98.4-0.8c8.8,8.8,16,20,18.4,32.8
l1.6,6.4l-5.6,3.2c-6.4,3.2-12.8,8-18.4,12.8l-7.2,5.6L373.108,179.342z"/>
<path style="fill:#A7E51F;" d="M367.508,160.942c4.8,4,8.8,8.8,12,14.4l1.6-1.6C377.108,168.942,372.308,164.942,367.508,160.942z"/>
<path style="fill:#A7E51F;" d="M304.308,139.342c11.2-12,27.2-18.4,44-18.4c12,0,24,4,34.4,11.2c-1.6-15.2-25.6-22.4-41.6-22.4
c-18.4,0.8-36.8,8-50.4,20.8c-7.2,9.6-12.8,20-17.6,31.2c2.4,0.8,16,7.2,19.2-4C295.508,150.542,299.508,144.142,304.308,139.342z"/>
<path style="fill:#50AC25;" d="M350.708,108.142c-3.2,0-17.6,0-18.4,8c24.8,3.2,44.8,21.6,51.2,45.6c-3.2,1.6-6.4,3.2-9.6,5.6
c-8,9.6,2.4,14.4,4,17.6c9.6-6.4,20.8-11.2,31.2-16C401.908,141.742,378.708,108.142,350.708,108.142z"/>
<path style="fill:#D60606;" d="M63.508,427.342l5.6-3.2c35.2-21.6,94.4-57.6,133.6-100c61.6-67.2,69.6-114.4,68.8-148
c0-0.8,0-1.6,0-2.4v-11.2l9.6,1.6c11.2,2.4,31.2,7.2,36.8,17.6l0.8,0.8h0.8c8.8-7.2,19.2-13.6,30.4-18.4l4-1.6l3.2,3.2
c8,6.4,14.4,14.4,18.4,24l0.8,0.8l0,0h0.8c6.4-6.4,12.8-12,20-16.8l14.4-8.8l-0.8,16c-2.4,60-51.2,131.2-128.8,192
c-68.8,53.6-163.2,66.4-213.6,68.8L63.508,427.342z"/>
<path style="fill:#BA0808;" d="M381.108,187.342c-3.2,3.2-4,7.2-3.2,12c-16.8,47.2-58.4,98.4-116.8,144
c-43.2,34.4-96.8,51.2-143.2,60c-23.2,0.8-38.4,12.8-51.2,20c-1.6,1.6-20,18.4-22.4,19.2c52.8-2.4,172.8-14.4,239.2-65.6
c76.8-59.2,124.8-145.6,128-203.2C405.108,178.542,385.908,182.542,381.108,187.342z"/>
<path style="fill:#E82525;" d="M94.708,430.542c36-21.6,95.2-57.6,136-101.6c61.6-67.2,70.4-115.2,70.4-150.4
c6.4-13.6-21.6-16.8-28.8-18.4c0,0.8-4.8,19.2-4.8,20c0.8,35.2-4,74.4-68,144c-40,44-95.2,74.4-130.4,96c-1.6,1.6-31.2,24-32.8,24.8
c7.2,0,48-3.2,56-13.6L94.708,430.542z"/>
<path style="fill:#1C1211;" d="M417.108,17.742c4.8-1.6,7.2-7.2,4.8-12s-6.4-7.2-11.2-4.8l0,0c-56,22.4-69.6,75.2-72.8,96
c-20.8,0.8-40,9.6-54.4,24c-14.4,15.2-23.2,35.2-22.4,56c0.8,32-6.4,76.8-66.4,140.8c-37.6,41.6-96,76.8-130.4,97.6
c-30.4,18.4-36,21.6-33.6,30.4c1.6,4.8,6.4,8,11.2,7.2c46.4,0,162.4-7.2,245.6-72c84-65.6,132.8-140.8,132.8-205.6
c0-4,0-7.2-0.8-11.2l0,0l0,0c-4.8-33.6-29.6-60-63.2-66.4C359.508,80.142,371.508,36.142,417.108,17.742z M276.308,367.342
c-66.4,51.2-156,64-208.8,67.2l5.6-3.2c35.2-21.6,95.2-57.6,136-101.6c64-69.6,71.2-118.4,71.2-153.6c0-0.8,0-2.4,0-3.2
c13.6,2.4,28,8,31.2,13.6c2.4,4.8,8,6.4,12,4c0.8,0,1.6-0.8,1.6-0.8c8-7.2,17.6-12.8,28-16.8c7.2,5.6,12,12,15.2,20
c0.8,3.2,3.2,5.6,6.4,6.4c0.8,0,1.6,0,2.4,0c2.4,0,4.8-0.8,6.4-3.2c5.6-5.6,12-11.2,18.4-15.2
C399.508,238.542,353.108,307.342,276.308,367.342z M400.308,160.942c-7.2,4-14.4,8.8-20.8,13.6c-5.6-8-12-15.2-20-20.8
c-2.4-1.6-4.8-1.6-7.2-1.6c-11.2,3.2-22.4,8.8-32,16c-11.2-8-24-12.8-36.8-14.4c3.2-8,7.2-15.2,13.6-21.6c24-24,62.4-24.8,86.4-0.8
C391.508,140.142,397.908,149.742,400.308,160.942z"/>
</symbol>

<symbol id="icon-veg" viewBox="0 0 400.174 400.174">
<path style="fill:#45B549;" d="M201.38,88.422c113.12-12.44,149.88-84,150-84c1.856-3.567,6.252-4.953,9.819-3.097
c1.799,0.936,3.126,2.581,3.661,4.537c37.6,127.52,17.08,215.44-26.08,267.6c-16.709,20.331-38.11,36.296-62.36,46.52
c-22.339,9.474-46.587,13.584-70.8,12c-46.36-3.24-88.68-28-108.32-72.36c-5.032-11.34-8.284-23.388-9.64-35.72
c-2.743-24.717,2.083-49.685,13.84-71.6c12.622-23.385,32.719-41.863,57.08-52.48C172.173,93.833,186.611,89.988,201.38,88.422
L201.38,88.422z"/>
<path style="fill:#009549;" d="M350.58,7.102c0.099-4.019,3.437-7.198,7.456-7.099c4.019,0.099,7.198,3.437,7.099,7.456
c-0.007,0.296-0.033,0.59-0.076,0.883c0,0.36-6.36,84-88,168.64l-0.76,0.8c-19.18,19.673-40.226,37.436-62.84,53.04l49.04,9.12
c3.909,0.943,6.313,4.876,5.37,8.784c-0.854,3.538-4.189,5.902-7.81,5.536l-64-12c-58.36,36.96-157.28,71.08-165.92,151.6
c-0.535,3.985-4.199,6.782-8.184,6.247c-3.793-0.509-6.544-3.868-6.296-7.687c10.32-96.52,108.4-121.36,174.56-163.56l0.92-0.6
c26.403-16.71,50.861-36.311,72.92-58.44l-5.8-57.4c-0.535-3.985,2.262-7.649,6.247-8.184s7.649,2.262,8.184,6.247
c0.022,0.165,0.039,0.331,0.049,0.497l4.4,44.56C345.18,79.142,350.54,7.422,350.58,7.102L350.58,7.102z"/>
</symbol>

<symbol id="icon-peanut" viewBox="0 0 512 512">
<path d="m255.018 294.241c8.904-42.546-5.796-68.061-40.367-74.609-33.558-6.356-62.795-1.49-77.376 43.859-13.305 41.382-12.464 104.558 23.619 112.11s85.22-38.814 94.124-81.36z" fill="#cc624e"/><path d="m214.651 219.632c-10.531-1.995-20.637-2.883-29.997-1.763 3.923.388 7.928.992 11.997 1.763 34.571 6.548 49.272 32.063 40.367 74.609-7.533 35.993-43.859 74.717-76.717 81.219.199.046.393.099.594.141 36.083 7.552 85.219-38.814 94.124-81.36 8.904-42.546-5.797-68.061-40.368-74.609z" fill="#bc574a"/><path d="m193.158 493.524c38.638-19.861 49.197-47.331 32.526-78.294-16.183-30.056-38.36-49.694-82.747-32.476-40.503 15.711-89.026 56.121-72.182 88.89s83.765 41.741 122.403 21.88z" fill="#cc624e"/><path d="m225.683 415.23c-13.419-24.922-30.973-42.657-61.878-38.181 20.188 3.384 33.313 18.559 43.878 38.181 16.671 30.963 6.112 58.434-32.526 78.294-11.358 5.838-25.16 9.182-39.415 10.165 20.269 1.382 41.301-1.882 57.415-10.165 38.638-19.86 49.198-47.331 32.526-78.294z" fill="#bc574a"/><path d="m266.98 256c0-46.776-23.608-51.039-36.834-101.495-19.531-74.512 26.477-146.505 105.025-146.505s124.556 71.993 105.025 146.505c-13.225 50.456-36.834 54.719-36.834 101.495s23.608 51.039 36.834 101.495c19.532 74.512-26.477 146.505-105.025 146.505s-124.556-71.993-105.025-146.505c13.226-50.456 36.834-54.719 36.834-101.495z" fill="#ffaa5c"/><path d="m403.362 256c0-46.776 23.608-51.039 36.834-101.495 19.532-74.512-26.476-146.505-105.025-146.505-3.052 0-6.048.121-9 .335 73.018 5.276 114.797 74.553 96.025 146.171-13.226 50.456-36.834 54.719-36.834 101.495s23.608 51.039 36.834 101.495c18.772 71.618-23.007 140.895-96.025 146.171 2.952.213 5.948.335 9 .335 78.548 0 124.556-71.993 105.025-146.505-13.225-50.458-36.834-54.721-36.834-101.497z" fill="#ff9838"/><path d="m426.584 306.834c-8.636-14.762-15.457-26.421-15.457-50.839s6.821-36.077 15.457-50.839c7.111-12.154 15.17-25.931 21.203-48.948 10.693-40.791 3.26-81.765-20.392-112.416-21.792-28.24-54.502-43.792-92.106-43.792-37.603 0-70.313 15.552-92.105 43.793-23.652 30.65-31.084 71.625-20.392 112.416 6.033 23.017 14.093 36.794 21.203 48.948 6.701 11.454 12.306 21.043 14.483 36.17-.928-1.825-1.942-3.588-3.066-5.273-8.318-12.46-21.6-20.495-39.478-23.881-21.052-3.987-37.073-3.004-50.416 3.094-16.481 7.532-28.146 22.557-35.663 45.935-2.119 6.595-3.879 13.637-5.23 20.93-.755 4.08 1.94 8.001 6.021 8.757 4.078.752 8.002-1.94 8.757-6.021 1.234-6.665 2.836-13.08 4.759-19.066 6.151-19.129 15.179-31.187 27.602-36.865 10.379-4.742 23.523-5.378 41.372-1.996 13.764 2.608 23.781 8.481 29.774 17.459 7.496 11.228 9.082 27.503 4.714 48.373-3.917 18.712-17.17 39.984-34.587 55.513-17.535 15.632-36.528 23.182-50.825 20.189-23.383-4.894-25.687-40.088-25.592-54.992.026-4.151-3.317-7.536-7.467-7.563-.017 0-.032 0-.049 0-4.127 0-7.487 3.334-7.513 7.467-.184 28.988 7.209 50.432 20.77 61.72-.798.292-1.59.571-2.397.884-16.031 6.218-32.388 15.699-46.058 26.696-10.856 8.734-25.108 22.598-31.36 39.057-4.509 11.871-4.118 23.542 1.13 33.75 8.972 17.456 30.333 30.11 58.606 34.717 7.377 1.202 14.854 1.791 22.237 1.791 19.063 0 37.493-3.925 51.915-11.337 21.487-11.045 35.31-24.621 41.161-40.379 1.751 2.704 3.607 5.348 5.587 7.914 21.792 28.24 54.502 43.793 92.105 43.793 54.423 0 98.68-33.668 112.75-85.771 1.082-4.007-1.289-8.132-5.295-9.213-4.004-1.081-8.132 1.288-9.213 5.295-5.853 21.675-17.762 40.131-34.438 53.374-4.534 3.601-9.377 6.753-14.475 9.463 5.609-19.859 8.921-43.71 9.461-69.004.089-4.15-3.203-7.585-7.352-7.673-.055-.001-.11-.002-.163-.002-4.075 0-7.423 3.26-7.51 7.354-.625 29.298-5.087 56.354-12.601 76.733-7.532 2.235-15.447 3.627-23.649 4.156v-272.652c0-4.151-3.364-7.515-7.514-7.515s-7.514 3.364-7.514 7.515v272.659c-8.225-.528-16.138-1.925-23.652-4.152-11.583-31.321-15.556-76.402-10.617-121.59 2.648-24.229 6.229-38.91 9.388-51.863 4.254-17.445 7.929-32.51 7.929-63.111s-3.675-45.666-7.93-63.111c-1.373-5.629-2.793-11.45-4.184-18.186-.827-4.01-4.869-6.666-8.879-5.839-4.011.827-6.668 4.869-5.839 8.879 1.444 6.998 2.896 12.951 4.301 18.708 4.191 17.184 7.502 30.756 7.502 59.55 0 28.795-3.31 42.367-7.502 59.55-3.268 13.4-6.972 28.587-9.728 53.793-4.556 41.688-1.78 83.552 7.367 115.798-11.907-6.333-22.353-15.109-30.85-26.12-20.783-26.934-27.254-63.173-17.752-99.424 5.51-21.019 12.693-33.297 19.638-45.169 9.007-15.395 17.513-29.937 17.513-58.428s-8.507-43.032-17.513-58.427c-6.945-11.873-14.128-24.15-19.638-45.169-9.502-36.251-3.031-72.49 17.752-99.424 8.495-11.009 18.939-19.784 30.844-26.116-8.181 28.779-11.286 65.179-8.547 102.774.289 3.954 3.585 6.969 7.487 6.969.183 0 .368-.006.554-.02 4.14-.302 7.25-3.902 6.949-8.041-2.964-40.667 1.426-81.082 11.758-109.111 7.512-2.226 15.423-3.623 23.647-4.151v178.717c0 4.151 3.364 7.514 7.514 7.514s7.514-3.364 7.514-7.514v-178.72c8.225.528 16.138 1.925 23.652 4.152 11.583 31.32 15.557 76.401 10.618 121.591-2.648 24.229-6.229 38.91-9.388 51.863-4.255 17.444-7.93 32.51-7.93 63.11s3.675 45.666 7.93 63.11c1.484 6.086 3.02 12.379 4.514 19.808.829 4.121 5.036 6.805 9.124 5.824 3.877-.93 6.396-4.881 5.609-8.788-1.555-7.728-3.127-14.173-4.648-20.405-4.191-17.183-7.502-30.755-7.502-59.549s3.311-42.366 7.502-59.549c3.269-13.4 6.973-28.588 9.729-53.793 4.556-41.69 1.78-83.554-7.368-115.799 11.908 6.333 22.354 15.109 30.851 26.12 20.783 26.934 27.254 63.173 17.752 99.424-5.51 21.019-12.692 33.297-19.638 45.169-9.007 15.395-17.513 29.937-17.513 58.427 0 28.491 8.507 43.032 17.513 58.428 6.946 11.872 14.128 24.15 19.638 45.169 3.025 11.542 4.445 23.232 4.221 34.747-.08 4.149 3.218 7.578 7.368 7.659.05.001.099.001.149.001 4.082 0 7.43-3.269 7.511-7.369.25-12.897-1.335-25.968-4.71-38.849-6.03-23.014-14.089-36.791-21.2-48.945zm-204.998 53.937c-2.273 10.06-3.452 20.104-3.559 29.977-5.616-6.538-11.591-11.477-18.135-15.031 7.281-3.777 14.584-8.788 21.694-14.946zm2.569 92.427c-4.001 12.885-15.639 24.358-34.59 34.099-16.993 8.734-41.846 11.83-64.865 8.078-23.171-3.776-40.986-13.778-47.657-26.754-3.339-6.496-3.484-13.543-.446-21.543 6.727-17.711 32.52-43.004 68.802-57.078 11.408-4.424 24.116-7.534 36.347-5.061 10.013 2.025 18.333 7.977 24.899 15.616 3.886 4.521 7.178 9.511 10.167 14.66 1.518 2.615 2.983 5.274 4.225 8.034 1.272 2.828 2.192 5.793 3.143 8.74 2.167 6.713 2.057 14.502-.025 21.209z"/>
</symbol>

<symbol id="icon-egg" viewBox="0 0 511.998 511.998">
<path style="fill:#E59770;" d="M325.965,254.646c-13.352-85.727-49.205-139.037-83.766-171.548
c-43.773-41.176-112.076-41.181-155.854-0.01C51.779,115.595,15.92,168.901,2.557,254.626c0,0-25.157,120.191,82.336,183.039
c49.068,28.689,109.642,28.693,158.714,0.01C351.107,374.84,325.965,254.646,325.965,254.646z"/>
<path style="fill:#DB7E56;" d="M243.608,437.679c-28.805,16.838-61.586,23.794-93.661,20.851
c22.905-1.944,45.484-8.923,66.04-20.941c107.5-62.843,82.366-183.03,82.366-183.03c-13.358-85.734-49.213-139.043-83.77-171.552
c-18.192-17.107-40.623-27.112-63.76-30.005c32.325-3.829,65.982,6.203,91.381,30.096c34.557,32.509,70.412,85.818,83.76,171.552
C325.964,254.649,351.109,374.836,243.608,437.679z"/>
<path style="fill:#F9E8D4;" d="M509.444,255.249c-13.352-85.727-49.205-139.037-83.766-171.548
c-43.773-41.176-112.076-41.181-155.854-0.01c-34.565,32.506-70.424,85.813-83.787,171.538c0,0-25.157,120.191,82.336,183.039
c49.068,28.689,109.642,28.693,158.714,0.01C534.586,375.442,509.444,255.249,509.444,255.249z"/>
<path style="fill:#E8D0BA;" d="M427.086,438.282c-28.805,16.838-61.586,23.794-93.661,20.851
c22.905-1.944,45.484-8.923,66.04-20.941c107.5-62.843,82.366-183.03,82.366-183.03c-13.358-85.734-49.213-139.043-83.77-171.552
c-18.192-17.107-40.623-27.112-63.76-30.005c32.325-3.829,65.982,6.203,91.381,30.096c34.557,32.509,70.412,85.818,83.76,171.552
C509.442,255.251,534.586,375.439,427.086,438.282z"/>
<circle style="fill:#FEC007;" cx="347.76" cy="316.959" r="83.53"/>
<path style="fill:#EFAD0A;" d="M431.295,316.968c-0.007,46.128-37.403,83.527-83.541,83.521
c-21.21,0.003-40.572-7.901-55.297-20.936c9.392,3.666,19.617,5.667,30.305,5.671c46.128-0.004,83.524-37.392,83.531-83.521
c-0.001-24.918-10.905-47.293-28.213-62.584C409.224,251.256,431.287,281.539,431.295,316.968z"/>
</symbol>



<symbol id="icon-" viewBox=""></symbol>

</svg>



