<?xml version="1.0" encoding="iso-8859-1"?>
<!-- Generator: Adobe Illustrator 19.0.0, SVG Export Plug-In . SVG Version: 6.00 Build 0)  -->
<svg version="1.1" id="Capa_1" xmlns="http://www.w3.org/2000/svg" xmlns:xlink="http://www.w3.org/1999/xlink" x="0px" y="0px"
	 viewBox="0 0 512 512" style="enable-background:new 0 0 512 512;" xml:space="preserve">
<g>
	<g>
		<path d="M415.072,340.264l-152-288c-0.677-1.092-1.597-2.012-2.689-2.689c-3.906-2.421-9.034-1.217-11.455,2.689l-152,288
			c-0.415,0.786-0.696,1.636-0.831,2.514c-0.673,4.367,2.32,8.452,6.687,9.126C103.752,352.056,200,367.792,200,448
			c0,4.418,3.582,8,8,8h96c4.418,0,8-3.582,8-8c0-80,93.256-95.48,97.224-96.096c0.876-0.136,1.724-0.417,2.508-0.831
			C415.639,349.011,417.135,344.171,415.072,340.264z M296.272,440h-80.544c-4.856-69.944-72.936-94.528-99.728-101.52L256,73.144
			L396.04,338.48C369.208,345.472,301.128,370.056,296.272,440z"/>
	</g>
</g>
<g>
	<g>
		<rect x="248" y="56" width="16" height="216"/>
	</g>
</g>
<g>
	<g>
		<path d="M280,264h-48c-4.418,0-8,3.582-8,8v48c0,4.418,3.582,8,8,8h48c4.418,0,8-3.582,8-8v-48C288,267.582,284.418,264,280,264z
			 M272,312h-32v-32h32V312z"/>
	</g>
</g>
<g>
	<g>
		<path d="M296,448v16h-80v-16h-16v24c0,4.418,3.582,8,8,8h96c4.418,0,8-3.582,8-8v-24H296z"/>
	</g>
</g>
<g>
	<g>
		<rect x="200" y="472" width="16" height="32"/>
	</g>
</g>
<g>
	<g>
		<rect x="296" y="472" width="16" height="32"/>
	</g>
</g>
<g>
	<g>
		<rect x="56" y="24" width="400" height="16"/>
	</g>
</g>
<g>
	<g>
		<path d="M56,0H8C3.582,0,0,3.582,0,8v48c0,4.418,3.582,8,8,8h48c4.418,0,8-3.582,8-8V8C64,3.582,60.418,0,56,0z M48,48H16V16h32
			V48z"/>
	</g>
</g>
<g>
	<g>
		<path d="M64,216H16c-4.418,0-8,3.582-8,8v48c0,4.418,3.582,8,8,8h48c4.418,0,8-3.582,8-8v-48C72,219.582,68.418,216,64,216z
			 M56,264H24v-32h32V264z"/>
	</g>
</g>
<g>
	<g>
		<path d="M496,216h-48c-4.418,0-8,3.582-8,8v48c0,4.418,3.582,8,8,8h48c4.418,0,8-3.582,8-8v-48C504,219.582,500.418,216,496,216z
			 M488,264h-32v-32h32V264z"/>
	</g>
</g>
<g>
	<g>
		<path d="M504,0h-48c-4.418,0-8,3.582-8,8v48c0,4.418,3.582,8,8,8h48c4.418,0,8-3.582,8-8V8C512,3.582,508.418,0,504,0z M496,48
			h-32V16h32V48z"/>
	</g>
</g>
<g>
	<g>
		<path d="M85.6,84.048C50.032,118.336,32,165.416,32,224h16c0-54.024,16.36-97.216,48.64-128.352
			C157.232,37.168,254.72,40,255.712,40l0.584-16C252,23.872,151.2,20.864,85.6,84.048z"/>
	</g>
</g>
<g>
	<g>
		<path d="M426.688,84.048C361.12,20.856,260.256,23.864,256,24l0.584,16c0.944-0.088,98.488-2.824,159.08,55.648
			c32.272,31.136,48.632,74.328,48.632,128.352h16C480.296,165.416,462.264,118.336,426.688,84.048z"/>
	</g>
</g>
<g>
	<g>
		<rect x="80" y="496" width="352" height="16"/>
	</g>
</g>
<g>
</g>
<g>
</g>
<g>
</g>
<g>
</g>
<g>
</g>
<g>
</g>
<g>
</g>
<g>
</g>
<g>
</g>
<g>
</g>
<g>
</g>
<g>
</g>
<g>
</g>
<g>
</g>
<g>
</g>
</svg>
