<?xml version="1.0" encoding="utf-8"?>
<!-- Generator: Adobe Illustrator 24.3.0, SVG Export Plug-In . SVG Version: 6.00 Build 0)  -->
<svg version="1.1" id="Layer_1" xmlns="http://www.w3.org/2000/svg" xmlns:xlink="http://www.w3.org/1999/xlink" x="0px" y="0px"
	 viewBox="0 0 754 262" style="enable-background:new 0 0 754 262;" xml:space="preserve">
<style type="text/css">
	.st0{fill:#000088;stroke:#000088;stroke-width:6;}
	.st1{font-family:'ElementalEnd';}
	.st2{font-size:124.4731px;}
	.st3{font-size:124.0835px;}
	.st4{fill:#000088;stroke:#000088;stroke-width:3;}
</style>
<text transform="matrix(1 0 0 1 20.6691 122.4383)" class="st0 st1 st2">PUBLIC &amp;</text>
<text transform="matrix(1 0 0 1 182.669 229.5609)" class="st1 st3">MONEY</text>
<g>
	<g>
		<g>
			<rect x="67.99" y="125.12" class="st4" width="15.47" height="13.82"/>
			<rect x="50.2" y="144.3" class="st4" width="9.46" height="8.44"/>
			<polygon class="st4" points="109.6,149.53 121.97,149.53 121.97,132.95 91.03,132.95 91.03,160.58 109.6,160.58 			"/>
			<polygon class="st4" points="113.73,153.21 113.73,181.92 130.48,181.92 130.48,195.42 161,195.42 161,153.21 			"/>
			<polygon class="st4" points="44.7,181.92 67.99,181.92 67.99,158.89 10.22,158.89 10.22,210.47 44.7,210.47 			"/>
			<rect x="54.23" y="190.43" class="st4" width="66.72" height="59.57"/>
		</g>
	</g>
</g>
</svg>
