<svg id="Layer_1" data-name="Layer 1" xmlns="http://www.w3.org/2000/svg" viewBox="0 0 1131.75 60.73">
<defs><style>.cls-1{fill:#231f20;}</style>
</defs>
<path class="cls-1" d="M1211.53,186.84c-69.62,9.08-139.93,8.77-210,8.74L825,195.49q50.81-3,101.6-6.42c79.07-5.3,158.09-11.22,237.12-17.14,6.38-.48,6.43-10.49,0-10-140.24,10.5-280.51,21-421,28.07q-64.31,3.23-128.65,5.39l-249.25-.11-238.2-.12c-6.43,0-6.44,10,0,10l36.43,0c-24.66,1.86-49.27,4.28-73.83,7.41-6.29.8-6.37,10.81,0,10,138-17.61,277.29-12.53,416-14.57q54.45-.79,108.88-2.63l363.57.18c78,0,156.34,1.38,233.82-8.73C1217.82,196,1217.9,186,1211.53,186.84Z" transform="translate(-84.53 -161.91)"/>
</svg>