<svg height="512" viewBox="0 0 64 64" width="512" xmlns="http://www.w3.org/2000/svg"><g id="research"><path d="m32 17a15 15 0 1 0 -16 14.95v6.05h-2a1 1 0 0 0 -1 1v19a4 4 0 0 0 8 0v-19a1 1 0 0 0 -1-1h-2v-6.05a15.015 15.015 0 0 0 14-14.95zm-24-7v16.36a13 13 0 1 1 18 0v-12.36a1.033 1.033 0 0 0 -.29-.71l-4-4a1.033 1.033 0 0 0 -.71-.29h-12a1 1 0 0 0 -1 1zm11 30v18a2 2 0 0 1 -4 0v-18zm-2-10a12.89 12.89 0 0 1 -7-2.06v-16.94h10.59l3.41 3.41v13.53a12.89 12.89 0 0 1 -7 2.06z"/><path d="m61 2h-24a1 1 0 0 0 -1 1v20a1 1 0 0 0 1 1h24a1 1 0 0 0 1-1v-20a1 1 0 0 0 -1-1zm-1 20h-22v-18h22z"/><path d="m56 10h2v10h-2z"/><path d="m52 12h2v8h-2z"/><path d="m48 14h2v6h-2z"/><path d="m44 16h2v4h-2z"/><path d="m54.293 6.293-2.707 2.707h-3.586a1 1 0 0 0 -.832.445l-1.703 2.555h-1.465a1 1 0 0 0 -.707.293l-3 3 1.414 1.414 2.707-2.707h1.586a1 1 0 0 0 .832-.445l1.703-2.555h3.465a1 1 0 0 0 .707-.293l2.707-2.707h2.586v-2h-3a1 1 0 0 0 -.707.293z"/><path d="m40 18h2v2h-2z"/><path d="m12 13h8v2h-8z"/><path d="m12 17h10v2h-10z"/><path d="m12 25h10v2h-10z"/><path d="m12 21h4v2h-4z"/><path d="m18 21h4v2h-4z"/><path d="m52 40a11 11 0 1 0 11 11 11.007 11.007 0 0 0 -11-11zm0 20a9 9 0 1 1 9-9 9.014 9.014 0 0 1 -9 9z"/><path d="m51 48v2h2a2.006 2.006 0 0 1 2 2v2a2.006 2.006 0 0 1 -2 2v2h-2v-2h-2v-2h4v-2h-2a2.006 2.006 0 0 1 -2-2v-2a2.006 2.006 0 0 1 2-2v-2h2v2h2v2z"/><path d="m37 50h2v2h-2z"/><path d="m28 39a1 1 0 0 0 -1-1h-4v2h3v11a1 1 0 0 0 1 1h8v-2h-7z"/><path d="m50 30v4a1 1 0 0 1 -1 1h-26v-2h25v-3z"/><path d="m48 26h2v2h-2z"/></g></svg>