<svg id="Layer_5" enable-background="new 0 0 64 64" height="512" viewBox="0 0 64 64" width="512" xmlns="http://www.w3.org/2000/svg"><g><path d="m11 47h8v2h-8z"/><path d="m7 47h2v2h-2z"/><path d="m57.697 1-.252.168c-5.722 3.815-12.383 5.832-19.261 5.832h-.184-32c-2.757 0-5 2.243-5 5v36c0 2.757 2.243 5 5 5h14.613l-1.333 4h-1.28c-2.757 0-5 2.243-5 5v1h32v-1c0-2.757-2.243-5-5-5h-1.28l-1.333-4h14.613c2.757 0 5-2.243 5-5v-21.428c.172.1.344.208.515.302l.226.126h5.259v-26zm-9.697 20c.552 0 1 .449 1 1s-.448 1-1 1h-1-7v2h7c.552 0 1 .449 1 1s-.448 1-1 1h-1-6v2h6c.552 0 1 .449 1 1s-.448 1-1 1h-1-5v2h5c.552 0 1 .448 1 1s-.448 1-1 1h-14.515c-1.336 0-2.592-.521-3.536-1.465l-1.535-1.535h-2.414v-12h2.333l2.668-2c.858-.645 1.924-1 2.999-1h.685c1.126 2.361 3.53 4 6.315 4zm-16.92-6h-.08c-1.506 0-2.997.498-4.199 1.4l-2.134 1.6h-1.667v-3h-8v22h8v-3h1.586l.949.949c1.322 1.322 3.08 2.051 4.95 2.051h14.515c1.654 0 3-1.346 3-3 0-.537-.153-1.034-.401-1.471.839-.532 1.401-1.464 1.401-2.529 0-.537-.153-1.034-.401-1.471.839-.532 1.401-1.464 1.401-2.529 0-.537-.153-1.035-.402-1.472.562-.356 1.002-.888 1.229-1.524.058.024.115.056.173.082v19.914h-44v-30h24.08c-.047.328-.08.66-.08 1s.033.672.08 1zm-10.08 2v18h-4v-18zm29.766 3.836c-.456-1.078-1.524-1.836-2.766-1.836h-7v-10.112c5.663-.432 11.114-2.181 16-5.102v20.456c-.298-.185-.597-.373-.906-.568-1.71-1.08-3.474-2.193-5.328-2.838zm-12.582-11.836h.816v10h-1c-2.757 0-5-2.243-5-5s2.243-5 5-5zm4.645 52h-27.658c.413-1.164 1.525-2 2.829-2h22c1.304 0 2.416.836 2.829 2zm-6.216-4h-15.226l1.333-4h12.56zm15.387-6h-46c-1.654 0-3-1.346-3-3v-36c0-1.654 1.346-3 3-3h27.111c-.587.574-1.068 1.251-1.425 2h-24.686c-1.103 0-2 .897-2 2v30c0 1.103.897 2 2 2h44c1.103 0 2-.897 2-2v-18.879c.672.392 1.34.812 2 1.229v22.65c0 1.654-1.346 3-3 3zm9-26h-2v-22h2z"/><path d="m52.627 8.21.746 1.855c.691-.278 1.375-.575 2.051-.892l-.848-1.812c-.642.303-1.293.585-1.949.849z"/><path d="m42.88 10.717.24 1.985c2.791-.339 5.551-.969 8.203-1.875l-.646-1.893c-2.521.861-5.145 1.461-7.797 1.783z"/><path d="m9 25h4v2h-4z"/><path d="m9 29h4v2h-4z"/><path d="m9 33h4v2h-4z"/><path d="m9 37h4v2h-4z"/><path d="m39 39h2v2h-2z"/><path d="m43 39h2v2h-2z"/><path d="m47 39h2v2h-2z"/></g></svg>