<svg id="Capa_1" enable-background="new 0 0 512 512" height="512" viewBox="0 0 512 512" width="512" xmlns="http://www.w3.org/2000/svg"><g><path d="m481 512c8.284 0 15-6.716 15-15v-91c0-8.284-6.716-15-15-15h-75v45c0 41.422 33.578 76 75 76z"/><ellipse cx="256" cy="166" rx="30" ry="45"/><path d="m121 512h286.749c-19.532-19.08-31.749-46.608-31.749-76v-421c0-8.284-6.716-15-15-15h-330c-8.284 0-15 6.716-15 15v391c0 57.99 47.01 106 105 106zm135-421c33.091 0 60 33.647 60 75 0 34.841-19.193 63.953-45 72.338v107.662c0 8.291-6.709 15-15 15s-15-6.709-15-15v-107.662c-25.807-8.384-45-37.496-45-72.338 0-41.353 26.909-75 60-75zm-165 15c0-5.2 2.695-10.02 7.119-12.759 4.409-2.739 9.932-2.959 14.59-.659 42.129 21.064 68.291 63.398 68.291 110.493v22.925c0 24.814-20.186 45-45 45h-15v75c0 8.291-6.709 15-15 15s-15-6.709-15-15zm15 285h180c8.291 0 15 6.709 15 15s-6.709 15-15 15h-180c-8.291 0-15-6.709-15-15s6.709-15 15-15z"/><path d="m151 226v-22.925c0-26.66-11.074-51.313-30-68.716v106.641h15c8.276 0 15-6.724 15-15z"/></g></svg>